<svg width="442" height="94" viewBox="0 0 442 94" fill="none" xmlns="http://www.w3.org/2000/svg">
<path d="M201.2 27.0835C201.2 40.5498 204.874 51.2412 219.245 55.9612C227.819 59.0217 229.615 61.3749 229.615 66.2343C229.615 70.9543 227.815 74.0097 221.776 74.0097C214.477 73.7866 207.324 70.4956 200.955 64.4303V86.364C205.283 89.9737 210.998 94 221.613 94C236.637 94 242.598 82.6081 242.598 65.6783L201.2 27.0835ZM242.598 65.6783C242.598 49.7126 237.617 42.2144 223.573 37.0795C215.816 34.1635 213.938 31.2492 213.938 27.0835C213.938 21.8126 216.714 19.587 221.858 19.587C228.064 19.587 234.188 22.7801 239.985 27.223V6.25843C234.426 1.95664 228.372 -0.1777 222.266 0.0115738C208.385 0.0115738 201.2 10.2847 201.2 27.0835" fill="#555"/>
<path d="M394.218 1.39893V92.6125H405.649V23.0572L410.467 41.5206L426.634 92.6125H441.005V1.39893H429.574V60.2645L425.246 43.1869L412.263 1.39893H394.218Z" fill="#555"/>
<path d="M321.512 1.39893H309.019V92.6125H321.512V1.39893Z" fill="#555"/>
<path d="M294.604 65.6783C294.604 49.7126 289.623 42.2144 275.579 37.0795C267.822 34.1635 265.944 31.2492 265.944 27.0835C265.944 21.8126 268.72 19.587 273.864 19.587C280.07 19.587 286.194 22.7801 291.991 27.223V6.25843C286.432 1.95664 280.378 -0.1777 274.272 0.0115738C260.391 0.0115738 253.206 10.2847 253.206 27.0835C253.206 40.5498 256.88 51.2412 271.251 55.9612C279.825 59.0217 281.621 61.3749 281.621 66.2343C281.621 70.9543 279.821 74.0097 273.782 74.0097C266.483 73.7866 259.33 70.4956 252.961 64.4303V86.364C257.289 89.9737 263.004 94 273.619 94C288.643 94 294.604 82.6081 294.604 65.6783" fill="#555"/>
<path d="M104.151 1.39893V92.6125H129.829L133.872 72.8977H116.725V1.39893H104.151Z" fill="#555"/>
<path d="M53.4189 1.39893V21.112H67.2999V92.6125H79.8739V21.112H94.7349V1.39893H53.4189Z" fill="#555"/>
<path d="M35.186 1.39893H18.707L0 92.6125H14.286L16.938 77.2504C23.4695 80.5113 30.4145 80.5113 36.946 77.2504L39.598 92.6125H53.887L35.186 1.39893ZM26.946 60.8018C24.6189 60.8016 22.3038 60.2353 20.071 59.1202L26.946 19.3148L33.821 59.1338C31.5878 60.2443 29.2727 60.806 26.946 60.8018V60.8018Z" fill="#555"/>
<path d="M174.097 1.39893H157.619L138.912 92.6125H153.201L155.853 77.2504C162.385 80.5113 169.33 80.5113 175.861 77.2504L178.513 92.6125H192.802L174.097 1.39893ZM165.858 60.8018C163.531 60.8016 161.216 60.2353 158.983 59.1202L165.858 19.3148L172.733 59.1338C170.5 60.2443 168.185 60.806 165.858 60.8018Z" fill="#555"/>
<path d="M366.53 1.39893H350.052L331.345 92.6125H345.634L348.286 77.2504C354.818 80.5113 361.763 80.5113 368.294 77.2504L370.946 92.6125H385.236L366.53 1.39893ZM358.286 60.8018C355.959 60.8016 353.644 60.2353 351.411 59.1202L358.286 19.3148L365.161 59.1338C362.928 60.2443 360.613 60.806 358.286 60.8018V60.8018Z" fill="#555"/>
</svg>
