<?xml version="1.0" encoding="UTF-8"?>
<svg width="198px" height="26px" viewBox="0 0 198 26" version="1.1" xmlns="http://www.w3.org/2000/svg" xmlns:xlink="http://www.w3.org/1999/xlink">
    <!-- Generator: sketchtool 64 (101010) - https://sketch.com -->
    <title>CCD1F66F-6925-4CC2-BB9A-65F576839D20</title>
    <desc>Created with sketchtool.</desc>
    <g id="Page-1" stroke="none" stroke-width="1" fill="none" fill-rule="evenodd">
        <g id="BNYM_Homepage_Desktop" transform="translate(-80.000000, -37.000000)" fill-rule="nonzero">
            <g id="Nav/Main_Desktop_Blue">
                <g id="[Header]" transform="translate(80.000000, 37.000000)">
                    <g id="Logos-/-bny_horizontal_white">
                        <g id="bny_horizontal_2014">
                            <path d="M69.5592642,7.18268946 L71.3424754,7.18268946 L71.3424754,16.6619899 L63.0208234,6.11915819 L58.909531,6.11915819 L58.909531,7.22892995 L60.6432085,7.22892995 L61.1880786,8.01501828 L61.1880786,19.9450647 L59.4048675,19.9450647 L59.4048675,21.0548365 L64.5563663,21.0548365 L64.5563663,19.9450647 L62.7731552,19.9450647 L62.7731552,9.91087837 L71.6396772,21.3322794 L72.8780183,21.3322794 L72.8780183,7.27517044 L74.6612294,7.27517044 L74.6612294,6.16539868 L69.5592642,6.16539868 L69.5592642,7.18268946 L69.5592642,7.18268946 Z M50.2906772,19.7138623 L48.2597978,19.7138623 L48.2597978,13.8875605 L50.2906772,13.8875605 C52.4206238,13.8875605 53.8075658,15.0435728 53.8075658,16.9394329 C53.8075658,18.9740144 51.9252874,19.7138623 50.2906772,19.7138623 M48.2597978,7.41389191 L50.2411436,7.41389191 C51.28135,7.41389191 53.0150275,7.73757534 53.0150275,9.95711886 C53.0150275,11.8067385 51.5785519,12.6390673 50.1420763,12.6390673 L48.3093315,12.6390673 L48.3093315,7.41389191 L48.2597978,7.41389191 Z M52.816893,13.1477127 C54.3524359,12.7315483 55.7393779,11.668017 55.7393779,9.86463788 C55.7393779,7.55261338 53.9066331,6.11915819 51.0832155,6.11915819 L43.7027027,6.11915819 L43.7027027,7.22892995 L45.4859138,7.22892995 L45.4859138,19.9450647 L43.7027027,19.9450647 L43.7027027,21.101077 L51.4794846,21.101077 C54.5010368,21.101077 56.4823825,19.4826598 56.4823825,17.1706353 C56.5319162,14.7198893 54.748705,13.5176366 52.816893,13.1477127 M85.5586309,7.18268946 L87.5895102,7.18268946 L84.1221552,12.5003458 L80.4566657,7.18268946 L82.2894104,7.18268946 L82.2894104,6.0729177 L75.8500369,6.0729177 L75.8500369,7.18268946 L77.2865125,7.18268946 L82.1408095,14.1650035 L82.1408095,19.8988242 L80.3575984,19.8988242 L80.3575984,21.0548365 L86.5988374,21.0548365 L86.5988374,19.8988242 L84.8156262,19.8988242 L84.8156262,14.0725225 L89.3231877,7.22892995 L90.6110624,7.22892995 L90.6110624,6.11915819 L85.5586309,6.11915819 L85.5586309,7.18268946 L85.5586309,7.18268946 Z M161.295571,19.7138623 L155.995471,19.7138623 L155.995471,7.18268946 L157.778682,7.18268946 L157.778682,6.0729177 L151.537443,6.0729177 L151.537443,7.18268946 L153.320654,7.18268946 L153.320654,19.8988242 L151.537443,19.8988242 L151.537443,21.0548365 L162.632979,21.0548365 L162.632979,17.8180022 L161.246037,17.8180022 L161.295571,19.7138623 L161.295571,19.7138623 Z M147.624285,19.7138623 L142.373719,19.7138623 L142.373719,7.18268946 L144.15693,7.18268946 L144.15693,6.0729177 L137.915691,6.0729177 L137.915691,7.18268946 L139.698902,7.18268946 L139.698902,19.8988242 L137.915691,19.8988242 L137.915691,21.0548365 L149.011227,21.0548365 L149.011227,17.8180022 L147.624285,17.8180022 L147.624285,19.7138623 L147.624285,19.7138623 Z M109.681515,16.8469519 L104.282348,6.11915819 L99.82432,6.11915819 L99.82432,7.22892995 L101.607531,7.22892995 L101.607531,19.9450647 L99.82432,19.9450647 L99.82432,21.101077 L104.926285,21.101077 L104.926285,19.9450647 L103.143074,19.9450647 L103.143074,9.58719494 L109.087111,21.5172414 L114.78348,9.91087837 L114.78348,19.9913052 L113.000269,19.9913052 L113.000269,21.1473175 L119.241508,21.1473175 L119.241508,19.9913052 L117.458297,19.9913052 L117.458297,7.27517044 L119.241508,7.27517044 L119.241508,6.16539868 L115.031148,6.16539868 L109.681515,16.8469519 Z M172.242506,19.8525837 C169.270487,19.8525837 167.190074,17.2631163 167.190074,13.5176366 C167.190074,9.81839739 169.270487,7.22892995 172.242506,7.22892995 C175.115457,7.22892995 177.19587,9.81839739 177.19587,13.5176366 C177.245404,17.2631163 175.214524,19.8525837 172.242506,19.8525837 M172.242506,5.84171525 C167.834012,5.84171525 164.267589,9.309752 164.267589,13.6101176 C164.267589,17.9104832 167.834012,21.3785199 172.242506,21.3785199 C176.601466,21.3785199 180.167889,17.9104832 180.167889,13.6101176 C180.167889,9.26351151 176.651,5.84171525 172.242506,5.84171525 M192.898035,6.0729177 L192.898035,7.18268946 L194.681246,7.18268946 L194.681246,16.6619899 L186.409128,6.11915819 L182.248302,6.11915819 L182.248302,7.22892995 L183.981979,7.22892995 L184.576383,8.01501828 L184.576383,19.9450647 L182.793172,19.9450647 L182.793172,21.101077 L187.895137,21.101077 L187.895137,19.9450647 L186.111926,19.9450647 L186.111926,9.91087837 L194.978448,21.3322794 L196.216789,21.3322794 L196.216789,7.27517044 L198,7.27517044 L198,6.16539868 L192.898035,6.0729177 L192.898035,6.0729177 Z M132.615592,19.7138623 L127.067824,19.7138623 L127.067824,14.026282 L131.278183,14.026282 L131.278183,15.7371801 L132.665125,15.7371801 L132.665125,11.0668906 L131.22865,11.0668906 L131.22865,12.7315483 L127.01829,12.7315483 L127.01829,7.32141093 L132.31839,7.32141093 L132.31839,9.21727102 L133.705332,9.21727102 L133.705332,5.37931034 L132.31839,5.37931034 L132.31839,5.98043672 L122.560262,5.98043672 L122.560262,7.09020848 L124.343473,7.09020848 L124.343473,19.8063432 L122.560262,19.8063432 L122.560262,20.9623555 L133.953,20.9623555 L133.953,17.7255212 L132.566058,17.7255212 L132.615592,19.7138623 L132.615592,19.7138623 Z" id="Wordmark" fill="#FFFFFF"></path>
                            <g id="Icon">
                                <path d="M31.9617679,12.6138151 L16.8168071,6.60723647 C13.5714584,8.40921005 10.916173,10.5115126 8.75260721,12.6138151 C10.916173,14.7161176 13.5714584,16.8184201 16.8168071,18.6203937 L31.9617679,12.6138151 Z" id="Path" fill="#AE8639"></path>
                                <path d="M0.442547556,0.100109643 C0.442547556,0.100109643 2.01604998,5.40592075 7.32662064,11.1622252 C9.63770232,9.36025167 12.4405035,7.65838773 15.7841962,6.25685272 L0.442547556,0.100109643 Z" id="Path" fill="#A7A8AB"></path>
                                <path d="M0.442547556,25.1775753 C0.442547556,25.1775753 2.01604998,19.8717642 7.32662064,14.1154597 C9.63770232,15.9174333 12.4405035,17.6192973 15.7841962,19.0208323 L0.442547556,25.1775753 Z" id="Path" fill="#A59875"></path>
                            </g>
                        </g>
                    </g>
                </g>
            </g>
        </g>
    </g>
</svg>