<svg width="525" height="94" viewBox="0 0 525 94" fill="none" xmlns="http://www.w3.org/2000/svg">
<path d="M87.9775 10.5043H94.045V65.7192L65.7303 4.30946H51.7416V10.7736H57.6404L59.4944 15.3524V84.8424H53.427V91.3066H70.9551V84.8424H64.8876V26.3954L95.0562 92.9226H99.2697V11.043H105.337V4.5788H87.9775V10.5043ZM22.4157 83.4957H15.5056V49.5587H22.4157C29.6629 49.5587 34.382 56.2923 34.382 67.3352C34.382 79.1862 27.9775 83.4957 22.4157 83.4957ZM15.5056 11.851H22.2472C25.7865 11.851 31.6854 13.7364 31.6854 26.6648C31.6854 37.4384 26.7978 42.2865 21.9101 42.2865H15.6742V11.851H15.5056ZM31.0112 45.2493C36.236 42.8252 40.9551 36.6304 40.9551 26.1261C40.9551 12.659 34.7191 4.30946 25.1124 4.30946H0V10.7736H6.06741V84.8424H0V91.5759H26.4607C36.7416 91.5759 43.4832 82.149 43.4832 68.682C43.6517 54.4069 37.5843 47.404 31.0112 45.2493ZM142.416 10.5043H149.326L137.528 41.4785L125.056 10.5043H131.292V4.04012H109.382V10.5043H114.27L130.787 51.1748V84.5731H124.719V91.3066H145.955V84.5731H139.888V50.6361L155.225 10.7736H159.607V4.30946H142.416V10.5043ZM400.112 83.4957H382.079V10.5043H388.146V4.04012H366.91V10.5043H372.978V84.5731H366.91V91.3066H404.663V72.4527H399.944L400.112 83.4957ZM353.596 83.4957H335.73V10.5043H341.798V4.04012H320.562V10.5043H326.629V84.5731H320.562V91.3066H358.315V72.4527H353.596V83.4957ZM224.494 66.7966L206.124 4.30946H190.955V10.7736H197.022V84.8424H190.955V91.5759H208.315V84.8424H202.247V24.51L222.472 94L241.854 26.3954V85.1117H235.786V91.8453H257.022V85.1117H250.955V11.043H257.022V4.5788H242.697L224.494 66.7966ZM437.36 84.3037C427.247 84.3037 420.169 69.2206 420.169 47.404C420.169 25.8567 427.247 10.7736 437.36 10.7736C447.135 10.7736 454.214 25.8567 454.214 47.404C454.382 69.2206 447.472 84.3037 437.36 84.3037ZM437.36 2.69341C422.36 2.69341 410.225 22.894 410.225 47.9427C410.225 72.9914 422.36 93.192 437.36 93.192C452.191 93.192 464.326 72.9914 464.326 47.9427C464.326 22.6246 452.36 2.69341 437.36 2.69341ZM507.64 4.04012V10.5043H513.708V65.7192L485.562 4.30946H471.405V10.7736H477.303L479.326 15.3524V84.8424H473.258V91.5759H490.618V84.8424H484.551V26.3954L514.719 92.9226H518.933V11.043H525V4.5788L507.64 4.04012ZM302.528 83.4957H283.652V50.3668H297.978V60.3324H302.697V33.1289H297.809V42.8252H283.483V11.3123H301.517V22.3553H306.236V0H301.517V3.50143H268.315V9.96562H274.382V84.0344H268.315V90.7679H307.079V71.914H302.36L302.528 83.4957Z" fill="#555"/>
</svg>
