<svg width="280" height="94" viewBox="0 0 280 94" fill="none" xmlns="http://www.w3.org/2000/svg">
<path d="M119.155 48.2056C119.155 61.2532 108.871 70.8678 96.2501 70.8678C83.6295 70.8678 73.3457 61.2532 73.3457 48.2056C73.3457 35.0661 83.6295 25.5435 96.2501 25.5435C108.871 25.5435 119.155 35.0661 119.155 48.2056ZM109.128 48.2056C109.128 40.0522 103.168 34.4735 96.2501 34.4735C89.3325 34.4735 83.3722 40.0522 83.3722 48.2056C83.3722 56.2774 89.3325 61.9378 96.2501 61.9378C103.168 61.9378 109.128 56.2672 109.128 48.2056Z" fill="#555"/>
<path d="M168.566 48.2056C168.566 61.2532 158.282 70.8678 145.662 70.8678C133.041 70.8678 122.757 61.2532 122.757 48.2056C122.757 35.0763 133.041 25.5435 145.662 25.5435C158.282 25.5435 168.566 35.0661 168.566 48.2056ZM158.54 48.2056C158.54 40.0522 152.579 34.4735 145.662 34.4735C138.744 34.4735 132.784 40.0522 132.784 48.2056C132.784 56.2774 138.744 61.9378 145.662 61.9378C152.579 61.9378 158.54 56.2672 158.54 48.2056Z" fill="#555"/>
<path d="M215.919 26.9126V67.5982C215.919 84.3343 205.975 91.1698 194.219 91.1698C183.153 91.1698 176.493 83.8235 173.981 77.8156L182.71 74.2089C184.265 77.8974 188.073 82.25 194.209 82.25C201.734 82.25 206.397 77.6419 206.397 68.9674V65.708H206.047C203.803 68.4565 199.479 70.8576 194.023 70.8576C182.607 70.8576 172.148 60.9876 172.148 48.2874C172.148 35.4952 182.607 25.5435 194.023 25.5435C199.469 25.5435 203.793 27.9445 206.047 30.6113H206.397V26.9228H215.919V26.9126ZM207.107 48.2874C207.107 40.3076 201.744 34.4735 194.919 34.4735C188.001 34.4735 182.206 40.3076 182.206 48.2874C182.206 56.1854 188.001 61.9378 194.919 61.9378C201.744 61.9378 207.107 56.1854 207.107 48.2874Z" fill="#555"/>
<path d="M231.618 3.06543V69.4785H221.838V3.06543H231.618Z" fill="#555"/>
<path d="M269.727 55.6643L277.509 60.8139C274.997 64.5023 268.944 70.8576 258.485 70.8576C245.515 70.8576 235.828 60.9058 235.828 48.1954C235.828 34.7186 245.597 25.5332 257.363 25.5332C269.212 25.5332 275.008 34.8923 276.902 39.9499L277.941 42.5247L247.419 55.0717C249.756 59.6184 253.39 61.9378 258.485 61.9378C263.591 61.9378 267.133 59.4447 269.727 55.6643ZM245.772 47.5108L266.175 39.1019C265.053 36.2717 261.677 34.2997 257.703 34.2997C252.608 34.2997 245.515 38.7647 245.772 47.5108V47.5108Z" fill="#555"/>
<path d="M36.328 42.31V32.6954H68.9706C69.2897 34.3711 69.4544 36.3532 69.4544 38.4989C69.4544 45.7124 67.4677 54.6322 61.0647 60.9874C54.8368 67.4243 46.8794 70.8574 36.3383 70.8574C16.8 70.8574 0.370605 55.0613 0.370605 35.6687C0.370605 16.2761 16.8 0.47998 36.3383 0.47998C47.1471 0.47998 54.8471 4.68955 60.6324 10.1763L53.7971 16.9606C49.6485 13.0985 44.028 10.0945 36.328 10.0945C22.0603 10.0945 10.9015 21.5074 10.9015 35.6687C10.9015 49.83 22.0603 61.2428 36.328 61.2428C45.5824 61.2428 50.853 57.5543 54.2294 54.203C56.9677 51.4852 58.7691 47.6026 59.4794 42.2998L36.328 42.31V42.31Z" fill="#555"/>
</svg>
