<svg width="465" height="94" viewBox="0 0 465 94" fill="none" xmlns="http://www.w3.org/2000/svg">
<path fill-rule="evenodd" clip-rule="evenodd" d="M325.329 1.36561H334.883V78.8611H376.304L370.221 94H325.329V1.36561V1.36561ZM250.309 94L214.971 5.72212C212.799 -0.00835731 207.007 -0.00835582 204.544 5.95252L169.497 94H181.084L191.656 67.4002H214.249L220.189 52.2655H197.596L209.907 21.7742L238.728 94H250.309V94ZM271.812 1.39492C255.667 1.39492 245.039 22.1177 245.039 47.6828C245.039 73.2438 255.67 93.9749 271.812 93.9749L311.071 93.8995L317.214 78.8946H272.1C261.218 78.8946 254.849 64.9203 254.849 47.6828C254.849 30.4453 261.215 16.4709 272.1 16.4709H312.288L318.22 1.34887L271.812 1.39492V1.39492ZM26.7758 16.4709H68.1937C79.0813 16.4709 85.4472 30.4453 85.4472 47.6828C85.4472 64.9203 79.084 78.8946 68.1937 78.8946H26.7758C15.8882 78.8946 9.525 64.9203 9.525 47.6828C9.525 30.4453 15.8882 16.4709 26.7758 16.4709ZM26.7758 1.39492C10.6283 1.39492 0 22.1177 0 47.6828C0 73.2438 10.6283 93.9749 26.7758 93.9749H68.1937C84.3412 93.9749 94.9695 73.2438 94.9695 47.6828C94.9695 22.1177 84.3412 1.39492 68.1937 1.39492H26.7758ZM386.514 55.0218C388.07 68.7197 394.023 78.8946 403.315 78.8946H448.429L442.28 93.8995L403.027 93.9749C386.876 93.9749 376.253 73.2438 376.253 47.6828C376.253 22.1177 386.879 1.39492 403.027 1.39492L449.432 1.35305L443.505 16.4752H403.318C394.155 16.4752 388.176 26.4783 386.517 39.8914H443.217L437.134 55.026H386.514V55.0218V55.0218ZM149.005 56.3623C153.557 56.2365 157.895 53.2856 161.086 48.1451C164.276 43.0046 166.064 36.0858 166.064 28.8786C166.064 21.6715 164.276 14.7527 161.086 9.61216C157.895 4.47166 153.557 1.52074 149.005 1.39492L100.272 1.36143V93.9958H110.99V16.4752H149.005C151.083 16.4752 153.076 17.7819 154.545 20.108C156.014 22.4342 156.84 25.589 156.84 28.8786C156.84 32.1682 156.014 35.3231 154.545 37.6492C153.076 39.9753 151.083 41.2821 149.005 41.2821H118.52L152.911 93.8911H166.746L142.126 56.3958L149.005 56.3623V56.3623ZM459.444 1.44938C461.928 1.44938 463.894 4.5576 463.894 8.67953C463.894 12.8685 461.931 15.9515 459.444 15.9515C456.928 15.9515 454.97 12.8685 454.97 8.67953C454.97 4.5576 456.928 1.44938 459.444 1.44938V0C456.42 0 453.864 3.68208 453.864 8.67531C453.864 13.7188 456.422 17.4009 459.444 17.4009C462.441 17.4009 465 13.7188 465 8.67531C465 3.68208 462.441 0 459.444 0V1.44938Z" fill="#555"/>
</svg>
