<svg width="431" height="94" viewBox="0 0 431 94" fill="none" xmlns="http://www.w3.org/2000/svg">
<path d="M220.149 0.025992C235.555 -0.159418 251.062 0.650754 265.593 2.4535C287.452 5.13645 306.989 10.0532 321.284 16.4221C327.573 19.2162 332.84 22.2874 336.968 25.5368C337.7 26.0776 338.264 26.6853 337.872 27.2878C337.392 28.2992 334.856 29.1353 331.94 29.2363C328.911 29.3912 325.781 28.7304 324.701 27.7326C316.492 20.9789 302.483 15.1125 285.007 11.0517C274.204 8.5276 262.088 6.68962 249.43 5.6606C233.107 4.32567 215.921 4.32567 199.594 5.65653C176.283 7.53338 154.938 12.2084 139.884 18.7044C133.501 21.4414 128.231 24.4925 124.258 27.7384C123.398 28.4927 121.422 29.084 119.117 29.2164C116.894 29.3665 114.474 29.098 112.924 28.5192C111.097 27.8791 110.5 26.856 111.442 26.0158C122.376 16.9769 142.624 9.38371 167.517 4.86398C183.731 1.89696 201.868 0.241978 220.149 0.025992" fill="#555"/>
<path d="M200.139 26.1227C200.047 25.14 201.318 24.4048 202.577 24.3815C204.214 24.3493 205.855 24.3594 207.495 24.3765C208.634 24.4048 209.964 24.9603 209.96 25.8963C210.018 36.8899 209.924 47.8869 210.01 58.8867C216.1 53.9336 222.241 49.0076 228.353 44.0694C229.556 43.2011 230.508 41.8859 232.38 41.7727C234.902 41.6964 237.431 41.7418 239.956 41.7443C240.929 41.6803 242.015 42.3329 241.674 43.0927C241.274 43.6791 240.542 44.0817 239.944 44.5473C233.336 49.3771 226.703 54.1899 220.128 59.0406C226.479 64.3435 232.742 69.7005 239.064 75.0231C239.877 75.7804 240.896 76.4233 241.577 77.2582C242.077 77.9109 241.249 78.7052 240.293 78.736C238.193 78.8222 236.089 78.736 233.985 78.773C232.89 78.7545 231.707 78.8715 230.713 78.4589C229.666 78.0193 229.03 77.2336 228.28 76.5723C222.182 70.9554 216.125 65.3164 210.005 59.7093C209.942 65.2388 209.986 70.7658 209.981 76.2915C209.958 76.9294 210.136 77.6979 209.377 78.1634C208.168 79.0168 206.369 78.7175 204.86 78.773C203.521 78.7397 201.956 78.954 200.868 78.2311C200.262 77.8863 200.104 77.2976 200.127 76.7743C200.144 59.888 200.12 43.0041 200.139 26.1227" fill="#555"/>
<path d="M172.362 41.6523C175.419 40.9332 178.866 40.7963 181.861 41.7446C182.911 42.1056 184.132 42.8752 183.657 43.8235C183.177 45.0142 182.768 46.2185 182.196 47.3885C181.773 48.2283 180.441 48.5401 179.32 48.3762C176.798 48.0597 174.322 47.4503 171.736 47.5117C169.931 47.4809 168.266 48.1889 167.032 49.1067C165.04 50.5313 164.009 52.5238 163.546 54.5005C163.179 55.929 163.284 57.3883 163.267 58.8316C163.267 64.8968 163.27 70.9656 163.265 77.0308C163.383 78.0282 161.972 78.7056 160.742 78.74C159.051 78.7573 157.364 78.7733 155.676 78.7302C154.455 78.6834 153.081 78.032 153.24 77.0271C153.233 65.7958 153.223 54.5683 153.243 43.337C153.139 42.2201 154.83 41.6129 156.157 41.7175C157.822 41.7976 160.095 41.3395 161.178 42.565C161.999 43.9858 162.39 45.5205 163.161 46.9541C165.483 44.6239 168.56 42.5697 172.362 41.6523" fill="#555"/>
<path d="M0 42.5093C0.469722 42.1152 1.01858 41.689 1.80145 41.7296C4.09451 41.7136 6.39429 41.6767 8.68566 41.7542C9.84906 41.7788 10.6504 42.5266 10.8205 43.3182C13.0748 50.0239 15.2888 56.7393 17.533 63.4471C18.1913 65.5185 18.9927 67.569 19.422 69.676C19.8647 71.5689 19.9523 73.49 20.3732 75.3865C20.9524 72.6797 21.4709 69.9556 22.4693 67.3116C25.4038 59.3055 28.3366 51.301 31.2745 43.2974C31.5035 42.3847 32.6769 41.7359 33.9245 41.7359C36.4768 41.689 39.0342 41.7211 41.5865 41.7211C42.9553 41.6741 44.4202 42.2593 44.75 43.2851C46.942 49.1213 49.1074 54.9682 51.2908 60.8094C52.6157 64.5924 54.3514 68.3115 55.1009 72.1932C55.3078 73.2622 55.5099 74.3336 55.8112 75.3951C56.6344 69.2967 58.7795 63.3634 60.544 57.3919C62.0003 52.6409 63.4244 47.8848 64.8975 43.1335C65.1147 42.1792 66.4952 41.699 67.7111 41.7258C69.7752 41.7173 71.8427 41.6741 73.9033 41.7508C75.1273 41.7766 75.8307 42.7665 75.3997 43.5648C71.2582 54.7431 67.1318 65.9286 62.9886 77.1069C62.7662 78.0034 61.6986 78.7029 60.4479 78.7177C57.249 78.794 54.0436 78.7362 50.8447 78.7485C49.6983 78.8002 48.4859 78.3507 48.2837 77.4677C45.4202 69.7807 42.6135 62.0802 39.7767 54.3871C38.7497 51.7109 38.3338 48.9365 37.9028 46.184C37.3759 48.6348 37.1149 51.126 36.2226 53.5337C33.3184 61.4547 30.3973 69.3792 27.4864 77.3015C27.1581 78.5847 25.153 78.8409 23.6613 78.7571C20.6864 78.7177 17.7115 78.8076 14.7399 78.7177C13.6809 78.7201 12.8644 78.1167 12.6741 77.3852C8.49882 66.2513 4.33695 55.1122 0.158258 43.9809C0.0134688 43.4945 0.0319884 42.9982 0 42.5093Z" fill="#555"/>
<path d="M375.166 41.7509C377.337 41.7238 379.518 41.7175 381.69 41.7509C383.011 41.7644 384.254 42.4255 384.67 43.3493C388.421 50.519 392.145 57.7023 395.891 64.8758C396.673 66.3314 397.221 67.8499 397.571 69.3917C399.12 65.1369 401.182 60.9964 402.992 56.7971C405.007 52.2567 407.024 47.715 409.048 43.173C409.348 42.3827 410.378 41.8433 411.472 41.7767C413.245 41.6806 415.03 41.7644 416.806 41.7298C417.845 41.7386 419.082 41.6497 419.874 42.2594C420.387 42.5772 420.278 43.1053 420.064 43.5179C414.07 56.0238 408.094 68.5358 402.108 81.0453C401.068 83.129 400.268 85.31 398.593 87.1844C396.19 90.039 392.296 92.0943 388.017 93.2064C386.522 93.545 384.978 94.2963 383.37 93.8751C382.228 93.662 381.79 92.7938 381.181 92.1559C380.744 91.5771 379.935 91.0414 380.104 90.321C380.183 89.6067 380.966 89.0254 381.888 88.8346C383.693 88.3789 385.528 87.8765 386.99 86.9442C390.542 84.746 392.739 81.4948 393.576 78.1858C393.009 76.7167 391.96 75.3657 391.198 73.9433C385.483 64.2268 379.767 54.5067 374.038 44.7938C373.692 44.1582 373.184 43.5523 373.086 42.8628C373.1 42.1056 374.287 41.773 375.166 41.7509" fill="#555"/>
<path d="M108.663 46.4501C105.545 46.8738 102.701 48.2937 101.118 50.3158C98.4737 53.5952 98.1689 57.552 98.2883 61.2712C98.4767 64.638 99.2158 68.229 102.152 70.9506C104.343 72.9974 107.942 74.0257 111.441 73.9863C114.806 74.0651 118.332 73.2314 120.613 71.3595C123.527 69.0283 124.463 65.7931 124.864 62.7427C125.041 59.7466 125.123 56.6961 124.061 53.7701C123.216 51.2985 121.431 48.8268 118.343 47.4955C115.469 46.206 111.919 46.0856 108.663 46.4501V46.4501ZM109.979 41.1177C115.621 40.8639 121.532 41.7211 126.189 44.1657C130.354 46.3331 133.183 49.673 134.504 53.2541C136.075 57.5297 136.068 62.0925 134.644 66.3904C133.302 70.3521 130.164 74.0872 125.43 76.3384C120.37 78.794 114.015 79.432 108.077 78.9086C103.018 78.4529 98.0879 76.8298 94.5658 74.1033C90.426 70.9309 88.3701 66.5603 87.9426 62.2403C87.4224 57.4496 88.4257 52.3786 92.069 48.2874C94.7645 45.2085 99.0495 42.9465 103.829 41.9144C105.822 41.4588 107.902 41.247 109.979 41.1177" fill="#555"/>
<path d="M276.398 46.2556C273.305 46.4009 270.32 47.7027 268.939 49.7676C266.242 53.5867 266.187 58.031 266.322 62.2306C266.537 64.9743 266.944 67.8067 268.692 70.2845C269.874 71.9532 272.021 73.2709 274.559 73.6748C278.443 74.3583 283.015 73.7795 285.776 71.5345C288.436 69.319 289.311 66.3067 289.72 63.4558C290.001 60.206 290.018 56.8894 288.916 53.7084C288.158 51.5817 286.875 49.4574 284.572 47.9795C282.363 46.5573 279.285 46.0091 276.398 46.2556V46.2556ZM289.707 25.6525C289.636 24.7906 290.84 24.2402 291.887 24.1736C293.562 24.1071 295.243 24.139 296.921 24.1525C298.201 24.144 299.632 24.8398 299.447 25.8792C299.447 42.8419 299.451 59.8018 299.443 76.7621C299.531 77.6378 298.352 78.3175 297.246 78.3705C295.911 78.4222 294.572 78.4222 293.242 78.3545C292.304 78.3114 291.396 77.8717 291.076 77.2153C290.574 76.1131 290.313 74.9679 289.931 73.8472C288.079 75.6846 285.691 77.3102 282.725 78.1168C278.494 79.2559 273.785 79.2744 269.436 78.4986C265.067 77.7301 261.262 75.5344 259.154 72.644C255.846 68.2316 255.454 63.0408 255.661 58.1186C255.779 53.913 256.877 49.476 260.622 46.1387C263.448 43.3098 268.077 41.6865 272.753 41.2618C277.105 40.7962 281.824 41.3318 285.427 43.2606C287.131 44.1374 288.494 45.3133 289.712 46.5425C289.678 39.5809 289.687 32.6167 289.707 25.6525" fill="#555"/>
<path d="M336.536 46.4676C334.984 46.699 333.48 47.1545 332.226 47.8651C329.718 49.2936 328.472 51.5635 327.807 53.7678C326.839 57.2653 326.852 60.8773 327.352 64.414C327.82 67.0125 328.713 69.7858 331.317 71.7069C333.439 73.3362 336.637 73.9335 339.631 73.8263C342.85 73.9113 346.2 73.0345 348.276 71.1848C350.872 68.888 351.604 65.8327 351.983 62.9547C352.224 59.5705 352.227 56.1051 350.928 52.8195C350.106 50.7728 348.604 48.7371 346.07 47.571C343.279 46.2311 339.748 46.1078 336.536 46.4676ZM332.226 41.8221C336.693 40.917 341.474 40.8641 345.986 41.6191C350.179 42.3297 354.105 44.0511 356.681 46.6003C359.405 49.2135 360.78 52.4538 361.352 55.6827C361.849 58.1726 361.706 60.6947 361.711 63.2034C361.711 67.7304 361.711 72.2587 361.694 76.7844C361.762 77.3361 361.285 77.825 360.671 78.112C359.632 78.5799 358.344 78.373 357.185 78.426C355.886 78.4186 354.177 78.5023 353.47 77.5134C352.78 76.3509 352.637 75.0541 352.194 73.8313C350.451 75.3805 348.646 76.979 346.124 77.8743C342.282 79.2634 337.79 79.1821 333.679 78.5947C328.648 77.8681 324.015 75.6921 321.17 72.5567C317.781 68.9053 316.552 64.398 316.599 60.0421C316.557 55.7959 317.693 51.4058 320.921 47.8134C323.502 44.8764 327.643 42.7497 332.226 41.8221" fill="#555"/>
<path d="M422.197 69.6357C419.643 70.3217 418.035 72.4768 418.687 74.4226C419.352 76.707 422.985 78.2661 426.015 77.4213C428.81 76.7969 430.573 74.4657 429.706 72.4103C428.944 70.0976 425.193 68.7306 422.197 69.6357ZM422.551 68.6592C424.065 68.4843 425.712 68.472 427.118 68.9855C429.512 69.7811 431.233 71.6616 430.974 73.6172C431.173 75.9496 428.49 78.0346 425.429 78.4102C421.983 78.9459 418.274 77.1196 417.572 74.6049C416.666 72.0741 419.07 69.2257 422.551 68.6592Z" fill="#555"/>
<path d="M423.263 71.5009C423.258 72.0305 423.255 72.56 423.263 73.0933C423.898 73.0649 424.551 73.0933 425.177 72.9664C425.767 72.7878 425.708 72.2399 425.548 71.8729C424.939 71.4369 424.033 71.5502 423.263 71.5009ZM421.347 70.6389C423.179 70.7152 425.233 70.3372 426.883 71.0847C428.213 71.815 427.568 73.4036 426.067 73.7423C426.499 74.5797 427.102 75.358 427.652 76.156C426.959 76.1659 426.277 76.1745 425.595 76.1831C425.102 75.4442 424.618 74.6967 424.147 73.9516C423.847 73.9455 423.553 73.943 423.263 73.9393C423.258 74.6844 423.258 75.4294 423.258 76.1745C422.61 76.1683 421.975 76.1622 421.339 76.1585C421.344 74.3174 421.335 72.4763 421.347 70.6389" fill="#555"/>
</svg>
