<svg width="89" height="45" viewBox="0 0 89 45" fill="none" xmlns="http://www.w3.org/2000/svg">
<path d="M66.0083 6.78919C58.0473 6.78919 52.4165 12.8497 49.0954 17.9332L46.0204 22.6437L49.036 27.0552C52.55 32.2011 59.1049 38.2108 66.0083 38.2108C74.8609 38.2108 82.061 31.1632 82.061 22.5C82.061 13.8368 74.8609 6.78919 66.0083 6.78919ZM66.0083 35.3076C60.6416 35.3076 54.8552 30.3532 51.5013 25.4424L49.5626 22.6074L51.5948 19.4981C54.5169 15.0256 59.3897 9.69387 66.0083 9.69387C73.2233 9.69387 79.0943 15.4394 79.0943 22.5015C79.0943 29.5635 73.2233 35.3076 66.0083 35.3076ZM22.9917 6.78919C14.1391 6.78919 6.93903 13.8368 6.93903 22.5C6.93903 31.1632 14.1391 38.2108 22.9917 38.2108C29.8951 38.2108 36.4499 32.2011 39.964 27.0566L42.9796 22.6437L39.9046 17.9332C36.5835 12.8497 30.9527 6.78919 22.9917 6.78919ZM37.4987 25.4424C34.1434 30.3532 28.3584 35.3076 22.9917 35.3076C15.7767 35.3076 9.9057 29.5621 9.9057 22.5C9.9057 15.4379 15.7767 9.69242 22.9917 9.69242C29.6103 9.69242 34.483 15.0242 37.4052 19.4966L39.4374 22.606L37.4987 25.4424ZM66.0083 0C55.9246 0 48.8936 6.40597 44.5 12.4606C40.1064 6.40597 33.0754 0 22.9917 0C10.3136 0 0 10.0931 0 22.5C0 34.9069 10.3136 45 22.9917 45C33.4862 45 41.158 36.8637 44.5 32.5248C47.8419 36.8637 55.5137 45 66.0083 45C78.6864 45 89 34.9069 89 22.5C89 10.0931 78.6864 0 66.0083 0ZM66.0083 42.0968C57.5489 42.0968 49.9869 35.444 45.7327 29.2166L44.5 27.4123L43.2673 29.2166C39.0131 35.444 31.4511 42.0968 22.9917 42.0968C11.9497 42.0968 2.96667 33.3058 2.96667 22.5C2.96667 11.6942 11.9497 2.90323 22.9917 2.90323C32.7505 2.90323 39.3959 9.93919 43.2495 15.84L44.5 17.7532L45.7504 15.84C49.6041 9.93919 56.2495 2.90323 66.0083 2.90323C77.0503 2.90323 86.0333 11.6942 86.0333 22.5C86.0333 33.3058 77.0503 42.0968 66.0083 42.0968ZM29.6667 20.6274V22.921C29.6667 23.3216 29.3344 23.6468 28.925 23.6468H17.0583C16.6489 23.6468 16.3167 23.3216 16.3167 22.921V20.6274C16.3167 20.2268 16.6489 19.9016 17.0583 19.9016H28.925C29.3344 19.9016 29.6667 20.2268 29.6667 20.6274ZM72.6833 20.6274V22.921C72.6833 23.3216 72.3511 23.6468 71.9417 23.6468H67.9218V27.5806C67.9218 27.9813 67.5896 28.3065 67.1802 28.3065H64.8365C64.4271 28.3065 64.0948 27.9813 64.0948 27.5806V23.6468H60.075C59.6656 23.6468 59.3333 23.3216 59.3333 22.921V20.6274C59.3333 20.2268 59.6656 19.9016 60.075 19.9016H64.0948V15.9677C64.0948 15.5671 64.4271 15.2419 64.8365 15.2419H67.1802C67.5896 15.2419 67.9218 15.5671 67.9218 15.9677V19.9016H71.9417C72.3511 19.9016 72.6833 20.2268 72.6833 20.6274Z" fill="#D1D1D1"/>
</svg>
