<svg width="108" height="28" viewBox="0 0 108 28" fill="none" xmlns="http://www.w3.org/2000/svg">
<g clip-path="url(#clip0_47_74)">
<path d="M20.8768 12.8525L20.6961 12.5351C20.701 10.2695 19.6512 9.34667 18.4256 8.64354C18.7967 8.54589 19.1775 8.46776 19.285 7.99901C19.9246 7.83788 20.0564 7.54003 20.1199 7.22753C20.2859 7.11522 20.8426 6.80272 20.784 6.26561C21.0965 6.05077 21.2723 5.77245 21.1795 5.38182C21.5164 5.01561 21.6043 4.71288 21.4627 4.43456C21.868 3.93163 21.6873 3.67284 21.5164 3.41405C21.8191 2.86717 21.5506 2.28124 20.7059 2.37889C20.3689 1.88573 19.6365 1.99803 19.5242 1.99803C19.3973 1.84178 19.2313 1.70506 18.7186 1.76854C18.3865 1.47069 18.0154 1.5244 17.6297 1.666C17.1756 1.30956 16.8729 1.59764 16.5262 1.70506C15.9744 1.52928 15.8475 1.76854 15.5789 1.87108C14.9783 1.74413 14.7928 2.01756 14.5047 2.30565L14.1678 2.30077C13.2596 2.82811 12.8104 3.90233 12.6492 4.45409C12.4881 3.90233 12.0389 2.82811 11.1307 2.30077L10.7938 2.30565C10.5057 2.01756 10.3201 1.74413 9.71953 1.87108C9.4461 1.77342 9.32403 1.52928 8.77227 1.70506C8.54766 1.63671 8.3377 1.49022 8.09356 1.4951C7.9666 1.49999 7.825 1.54393 7.66875 1.666C7.28301 1.51952 6.91192 1.47069 6.57988 1.76854C6.06719 1.70506 5.89629 1.8369 5.77422 1.99803C5.66192 1.99803 4.92949 1.88573 4.59258 2.37889C3.74785 2.28124 3.48418 2.86717 3.78692 3.41405C3.61602 3.67772 3.43535 3.93651 3.84063 4.43456C3.69903 4.71288 3.78692 5.01561 4.12383 5.38182C4.03594 5.77245 4.21172 6.05077 4.51934 6.26561C4.46074 6.80272 5.01738 7.11522 5.1834 7.22753C5.24688 7.54003 5.37871 7.83299 6.01836 7.99901C6.12578 8.46288 6.50664 8.54589 6.87774 8.64354C5.65215 9.34667 4.60235 10.2695 4.60723 12.5351L4.42656 12.8525C3.02031 13.6924 1.75567 16.4023 3.73321 18.5996C3.86016 19.2881 4.07988 19.7812 4.27031 20.3281C4.5584 22.5351 6.44317 23.5654 6.93633 23.6875C7.66387 24.2344 8.44024 24.7519 9.48516 25.1133C10.4764 26.1191 11.5506 26.5 12.6248 26.5H12.6736C13.7527 26.5 14.8221 26.1191 15.8084 25.1133C16.8582 24.7519 17.6297 24.2344 18.3572 23.6875C18.8553 23.5654 20.7352 22.5351 21.0232 20.3281C21.2137 19.7812 21.4334 19.2881 21.5604 18.5996C23.5428 16.3974 22.2781 13.6924 20.8768 12.8525ZM19.7928 12.4619C19.7195 13.375 14.9637 9.28319 15.784 9.14647C18.0154 8.78026 19.866 10.084 19.7928 12.4619ZM17.6932 17.0078C16.4969 17.7793 14.7732 17.2812 13.8455 15.8945C12.9178 14.5078 13.1326 12.7598 14.3289 11.9883C15.5252 11.2168 17.2488 11.7148 18.1766 13.1015C19.1043 14.4883 18.8895 16.2363 17.6932 17.0078ZM14.3777 2.93065C14.4168 3.13573 14.4656 3.26268 14.5193 3.30174C14.783 3.01854 14.9979 2.73046 15.3397 2.45702C15.3397 2.61815 15.2566 2.78905 15.4617 2.916C15.6424 2.67186 15.8914 2.45213 16.2186 2.26659C16.0623 2.54003 16.1893 2.62303 16.2771 2.73534C16.5262 2.52049 16.7654 2.30565 17.2244 2.13475C17.0975 2.28612 16.9217 2.43749 17.1072 2.61327C17.366 2.45213 17.6248 2.291 18.2352 2.1787C18.0984 2.33006 17.8104 2.48631 17.9861 2.63768C18.3084 2.51561 18.6697 2.42284 19.0652 2.37401C18.8748 2.53026 18.7186 2.68163 18.8748 2.8037C19.2215 2.69628 19.7 2.55467 20.1639 2.67674L19.8709 2.9746C19.8367 3.01366 20.5594 3.00389 21.0379 3.01366C20.8621 3.2578 20.6863 3.48729 20.5838 3.90233C20.6326 3.95116 20.867 3.92186 21.0916 3.90233C20.8621 4.38573 20.4666 4.50292 20.3738 4.71288C20.5154 4.8203 20.7059 4.791 20.9207 4.71776C20.7547 5.05467 20.4129 5.28905 20.1395 5.56249C20.2078 5.61131 20.3299 5.64061 20.6131 5.60643C20.3592 5.87499 20.0564 6.11913 19.6951 6.33885C19.7586 6.4121 19.9783 6.4121 20.1834 6.41698C19.8563 6.73436 19.4363 6.90038 19.0408 7.11034C19.2361 7.24217 19.3777 7.21288 19.5291 7.21288C19.2508 7.44237 18.7772 7.55956 18.3377 7.70116C18.4207 7.83299 18.5037 7.86717 18.6844 7.90135C18.2205 8.16014 17.5516 8.04296 17.366 8.17479C17.41 8.30663 17.5418 8.38964 17.6932 8.45799C16.9412 8.50194 14.8953 8.4287 14.4998 6.88085C15.2664 6.03612 16.6678 5.04979 19.075 3.82421C17.2 4.44921 15.5105 5.28905 14.0945 6.43651C12.4197 5.66014 13.5672 3.70702 14.3777 2.93065ZM12.698 8.52635C13.8797 8.5117 15.3397 9.39549 15.3348 10.2207C15.3299 10.9531 14.3094 11.5439 12.7078 11.5342C11.1404 11.5146 10.0857 10.792 10.0906 10.0791C10.0906 9.49803 11.3699 8.49217 12.698 8.52635ZM6.69219 7.90135C6.87285 7.86717 6.95586 7.82811 7.03887 7.70116C6.59942 7.56444 6.12578 7.44237 5.84746 7.21288C5.99883 7.21288 6.14043 7.24706 6.33574 7.11034C5.94024 6.90038 5.52031 6.73436 5.19317 6.41698C5.39824 6.4121 5.61797 6.41698 5.68145 6.33885C5.32012 6.11913 5.01738 5.87499 4.76348 5.60643C5.04668 5.64061 5.16875 5.61131 5.23711 5.56249C4.96367 5.28905 4.61699 5.05467 4.45586 4.71776C4.66582 4.791 4.86114 4.81542 5.00274 4.71288C4.90996 4.5078 4.51446 4.38573 4.28496 3.90233C4.50957 3.92186 4.74395 3.95116 4.79278 3.90233C4.69024 3.48729 4.50957 3.25292 4.33867 3.01366C4.81719 3.00878 5.53985 3.01366 5.50567 2.9746L5.2127 2.67674C5.67656 2.55467 6.15508 2.69628 6.50176 2.8037C6.65801 2.68163 6.49688 2.53026 6.31133 2.37401C6.70684 2.42772 7.06328 2.51561 7.39043 2.63768C7.56133 2.48631 7.27813 2.33006 7.14141 2.1787C7.75176 2.291 8.01055 2.45213 8.26934 2.61327C8.45489 2.43749 8.2791 2.28612 8.15215 2.13475C8.61114 2.30077 8.85039 2.52049 9.09942 2.73534C9.18242 2.62303 9.31426 2.54003 9.15801 2.26659C9.48516 2.45213 9.73418 2.67186 9.91485 2.916C10.115 2.78905 10.0369 2.61327 10.0369 2.45702C10.3787 2.73046 10.5936 3.01854 10.8572 3.30174C10.9109 3.26268 10.9549 3.13573 10.9988 2.93065C11.8094 3.70702 12.9568 5.66014 11.2918 6.43651C9.87578 5.28905 8.18633 4.44921 6.31133 3.82421C8.71856 5.04491 10.1199 6.03612 10.8865 6.88085C10.4959 8.43358 8.44512 8.50194 7.69317 8.45799C7.84453 8.38964 7.97637 8.30174 8.02031 8.17479C7.825 8.03807 7.16094 8.15526 6.69219 7.90135ZM9.62676 9.07811C10.4471 9.21483 5.69121 13.3017 5.61797 12.3935C5.54473 10.0156 7.4002 8.70702 9.62676 9.07811ZM4.57793 18.1992C3.42071 17.2812 3.04961 14.6006 5.19317 13.3994C6.48711 13.0576 5.63262 18.6631 4.57793 18.1992ZM9.02129 22.9941C8.37188 23.3799 6.78496 23.2236 5.66192 21.6318C4.90508 20.2939 5.00274 18.9365 5.53496 18.5361C6.33086 18.0576 7.56133 18.7021 8.5086 19.7861C9.33379 20.7627 9.70977 22.4863 9.02129 22.9941ZM7.73223 17.1494C6.53594 16.3779 6.3211 14.6299 7.24883 13.2432C8.17656 11.8564 9.9002 11.3584 11.0965 12.1299C12.2928 12.9014 12.5076 14.6494 11.5799 16.0361C10.6473 17.4228 8.92364 17.9209 7.73223 17.1494ZM12.7225 25.7187C11.2869 25.7773 9.88067 24.5615 9.9002 24.1416C9.88067 23.5215 11.6482 23.0381 12.7957 23.0674C13.9529 23.0185 15.5105 23.4336 15.5154 23.9902C15.5398 24.5273 14.1092 25.7432 12.7225 25.7187ZM15.5984 19.6201C15.6082 21.0703 14.3191 22.2471 12.7273 22.2568C11.1355 22.2666 9.83672 21.0947 9.82695 19.6494V19.6201C9.81719 18.1699 11.1063 16.9932 12.698 16.9834C14.2898 16.9736 15.5887 18.1455 15.5984 19.5908V19.6201ZM19.6121 21.7051C18.3768 23.3945 16.702 23.458 16.0818 22.9892C15.4324 22.3838 15.9256 20.5039 16.8191 19.4736C17.8397 18.3359 18.9334 17.5937 19.6951 18.1748C20.2078 18.6777 20.5105 20.5723 19.6121 21.7051ZM20.7303 18.1308C19.6805 18.5898 18.826 12.9892 20.115 13.331C22.2586 14.5371 21.8875 17.2178 20.7303 18.1308Z" fill="black"/>
</g>
<path d="M33.6292 11.024C33.4972 11.108 33.3712 11.134 33.2512 11.102C33.1312 11.07 33.0292 10.988 32.9452 10.856L31.0852 7.76H29.4052V10.496C29.4052 10.832 29.2372 11 28.9012 11C28.5652 11 28.3972 10.832 28.3972 10.496V3.368C28.3972 3.032 28.5652 2.864 28.9012 2.864H31.7092C32.4412 2.864 33.0012 3.06 33.3892 3.452C33.7812 3.84 33.9772 4.4 33.9772 5.132V5.492C33.9772 6.128 33.8292 6.636 33.5332 7.016C33.2372 7.392 32.8092 7.626 32.2492 7.718L33.8212 10.34C33.9732 10.62 33.9092 10.848 33.6292 11.024ZM29.4052 6.752H31.7092C32.1652 6.752 32.4892 6.656 32.6812 6.464C32.8732 6.272 32.9692 5.948 32.9692 5.492V5.132C32.9692 4.68 32.8732 4.358 32.6812 4.166C32.4892 3.97 32.1652 3.872 31.7092 3.872H29.4052V6.752ZM37.7692 11C37.0972 11 36.5972 10.836 36.2692 10.508C35.9412 10.18 35.7772 9.68 35.7772 9.008C35.7772 8.336 35.9392 7.836 36.2632 7.508C36.5912 7.18 37.0932 7.016 37.7692 7.016H40.3072C40.2832 6.596 40.1732 6.31 39.9772 6.158C39.7812 6.002 39.4452 5.924 38.9692 5.924H38.2732C37.8732 5.924 37.5752 5.952 37.3792 6.008C37.1832 6.06 37.0452 6.156 36.9652 6.296C36.8932 6.464 36.8192 6.58 36.7432 6.644C36.6672 6.708 36.5532 6.74 36.4012 6.74C36.2332 6.74 36.1012 6.694 36.0052 6.602C35.9092 6.506 35.8812 6.38 35.9212 6.224C36.0412 5.772 36.2912 5.442 36.6712 5.234C37.0552 5.022 37.5892 4.916 38.2732 4.916H38.9692C39.7692 4.916 40.3612 5.108 40.7452 5.492C41.1292 5.876 41.3212 6.468 41.3212 7.268V10.496C41.3212 10.832 41.1532 11 40.8172 11C40.4812 11 40.3132 10.832 40.3132 10.496V10.226C39.8852 10.742 39.2612 11 38.4412 11H37.7692ZM37.7692 9.992H38.4412C38.7372 9.992 39.0152 9.966 39.2752 9.914C39.5352 9.858 39.7572 9.758 39.9412 9.614C40.1292 9.47 40.2532 9.264 40.3132 8.996V8.024H37.7692C37.3732 8.024 37.1092 8.09 36.9772 8.222C36.8492 8.354 36.7852 8.616 36.7852 9.008C36.7852 9.404 36.8492 9.668 36.9772 9.8C37.1092 9.928 37.3732 9.992 37.7692 9.992ZM45.1299 11C44.6219 11 44.2199 10.896 43.9239 10.688C43.6279 10.476 43.4379 10.16 43.3539 9.74C43.3259 9.572 43.3579 9.44 43.4499 9.344C43.5459 9.248 43.6779 9.2 43.8459 9.2C44.0099 9.2 44.1279 9.242 44.1999 9.326C44.2759 9.406 44.3379 9.528 44.3859 9.692C44.4339 9.812 44.5139 9.892 44.6259 9.932C44.7419 9.972 44.9099 9.992 45.1299 9.992H47.0979C47.4099 9.992 47.6199 9.942 47.7279 9.842C47.8359 9.738 47.8899 9.524 47.8899 9.2C47.8899 8.88 47.8359 8.668 47.7279 8.564C47.6199 8.46 47.4099 8.408 47.0979 8.408H45.1659C44.5899 8.408 44.1559 8.262 43.8639 7.97C43.5719 7.678 43.4259 7.244 43.4259 6.668C43.4259 6.08 43.5679 5.642 43.8519 5.354C44.1399 5.062 44.5779 4.916 45.1659 4.916H47.0379C47.9779 4.916 48.5339 5.312 48.7059 6.104C48.7379 6.272 48.7059 6.402 48.6099 6.494C48.5139 6.586 48.3819 6.632 48.2139 6.632C48.0579 6.632 47.9419 6.592 47.8659 6.512C47.7899 6.428 47.7299 6.312 47.6859 6.164C47.6379 6.068 47.5639 6.004 47.4639 5.972C47.3679 5.94 47.2259 5.924 47.0379 5.924H45.1659C44.8619 5.924 44.6639 5.97 44.5719 6.062C44.4799 6.154 44.4339 6.356 44.4339 6.668C44.4339 6.956 44.4819 7.15 44.5779 7.25C44.6779 7.35 44.8739 7.4 45.1659 7.4H47.0979C47.6979 7.4 48.1479 7.55 48.4479 7.85C48.7479 8.15 48.8979 8.6 48.8979 9.2C48.8979 9.804 48.7479 10.256 48.4479 10.556C48.1479 10.852 47.6979 11 47.0979 11H45.1299ZM51.5418 13.4C51.2058 13.4 51.0378 13.232 51.0378 12.896V5.42C51.0378 5.084 51.2058 4.916 51.5418 4.916C51.8778 4.916 52.0458 5.084 52.0458 5.42V5.57C52.2618 5.354 52.5278 5.192 52.8438 5.084C53.1638 4.972 53.5218 4.916 53.9178 4.916H54.3738C55.1738 4.916 55.7658 5.108 56.1498 5.492C56.5338 5.876 56.7258 6.468 56.7258 7.268V8.648C56.7258 9.444 56.5338 10.036 56.1498 10.424C55.7658 10.808 55.1738 11 54.3738 11H52.0458V12.896C52.0458 13.232 51.8778 13.4 51.5418 13.4ZM52.0458 9.992H54.3738C54.8978 9.992 55.2518 9.898 55.4358 9.71C55.6238 9.522 55.7178 9.168 55.7178 8.648V7.268C55.7178 6.744 55.6238 6.39 55.4358 6.206C55.2518 6.018 54.8978 5.924 54.3738 5.924H53.9178C53.4178 5.924 52.9858 5.984 52.6218 6.104C52.2578 6.224 52.0658 6.414 52.0458 6.674V9.992ZM59.4402 11C59.1042 11 58.9362 10.832 58.9362 10.496V3.056C58.9362 2.72 59.1042 2.552 59.4402 2.552C59.7762 2.552 59.9442 2.72 59.9442 3.056V5.558C60.1522 5.346 60.4122 5.186 60.7242 5.078C61.0362 4.97 61.4002 4.916 61.8162 4.916H62.2722C63.0722 4.916 63.6642 5.108 64.0482 5.492C64.4322 5.876 64.6242 6.468 64.6242 7.268V8.648C64.6242 9.444 64.4322 10.036 64.0482 10.424C63.6642 10.808 63.0722 11 62.2722 11H61.8162C61.4002 11 61.0362 10.946 60.7242 10.838C60.4122 10.73 60.1522 10.572 59.9442 10.364V10.496C59.9442 10.832 59.7762 11 59.4402 11ZM61.8162 9.992H62.2722C62.7962 9.992 63.1502 9.898 63.3342 9.71C63.5222 9.518 63.6162 9.164 63.6162 8.648V7.268C63.6162 6.744 63.5202 6.39 63.3282 6.206C63.1402 6.018 62.7882 5.924 62.2722 5.924H61.8162C61.2882 5.924 60.8442 5.992 60.4842 6.128C60.1242 6.26 59.9442 6.468 59.9442 6.752V9.164C59.9442 9.444 60.1242 9.652 60.4842 9.788C60.8442 9.924 61.2882 9.992 61.8162 9.992ZM67.5547 8.372V8.66C67.5547 9.176 67.6487 9.528 67.8367 9.716C68.0247 9.9 68.3787 9.992 68.8987 9.992H69.8827C70.2907 9.992 70.5927 9.954 70.7887 9.878C70.9847 9.802 71.1147 9.668 71.1787 9.476C71.2227 9.324 71.2827 9.208 71.3587 9.128C71.4387 9.048 71.5587 9.008 71.7187 9.008C71.8867 9.008 72.0147 9.052 72.1027 9.14C72.1907 9.228 72.2187 9.356 72.1867 9.524C72.0987 10.02 71.8627 10.39 71.4787 10.634C71.0947 10.878 70.5627 11 69.8827 11H68.8987C68.1027 11 67.5107 10.808 67.1227 10.424C66.7387 10.04 66.5467 9.452 66.5467 8.66V7.268C66.5467 6.456 66.7387 5.86 67.1227 5.48C67.5107 5.096 68.1027 4.908 68.8987 4.916H69.8827C70.6827 4.916 71.2747 5.108 71.6587 5.492C72.0427 5.872 72.2347 6.464 72.2347 7.268V7.868C72.2347 8.204 72.0667 8.372 71.7307 8.372H67.5547ZM68.8987 5.924C68.3787 5.916 68.0247 6.006 67.8367 6.194C67.6487 6.382 67.5547 6.74 67.5547 7.268V7.364H71.2267V7.268C71.2267 6.744 71.1327 6.39 70.9447 6.206C70.7607 6.018 70.4067 5.924 69.8827 5.924H68.8987ZM74.9441 11C74.6081 11 74.4401 10.832 74.4401 10.496V5.42C74.4401 5.084 74.6081 4.916 74.9441 4.916C75.2801 4.916 75.4481 5.084 75.4481 5.42V5.888C75.6841 5.568 75.9841 5.326 76.3481 5.162C76.7161 4.998 77.1361 4.916 77.6081 4.916C77.9441 4.916 78.1121 5.084 78.1121 5.42C78.1121 5.756 77.9441 5.924 77.6081 5.924C76.9161 5.924 76.3881 6.052 76.0241 6.308C75.6601 6.564 75.4681 6.902 75.4481 7.322V10.496C75.4481 10.832 75.2801 11 74.9441 11ZM80.0652 11C79.7292 11 79.5612 10.832 79.5612 10.496V5.42C79.5612 5.084 79.7292 4.916 80.0652 4.916C80.4012 4.916 80.5692 5.084 80.5692 5.42V5.888C80.8052 5.568 81.1052 5.326 81.4692 5.162C81.8372 4.998 82.2572 4.916 82.7292 4.916C83.0652 4.916 83.2332 5.084 83.2332 5.42C83.2332 5.756 83.0652 5.924 82.7292 5.924C82.0372 5.924 81.5092 6.052 81.1452 6.308C80.7812 6.564 80.5892 6.902 80.5692 7.322V10.496C80.5692 10.832 80.4012 11 80.0652 11ZM86.2903 13.4C85.7103 13.4 85.2763 13.254 84.9883 12.962C84.7043 12.674 84.5623 12.24 84.5623 11.66C84.5623 11.324 84.7303 11.156 85.0663 11.156C85.4023 11.156 85.5703 11.324 85.5703 11.66C85.5703 11.96 85.6143 12.156 85.7023 12.248C85.7943 12.344 85.9903 12.392 86.2903 12.392H88.6183C88.9143 12.392 89.1083 12.344 89.2003 12.248C89.2923 12.156 89.3383 11.96 89.3383 11.66V10.136C89.0983 10.496 88.8183 10.73 88.4983 10.838C88.1823 10.946 87.8383 11 87.4663 11H86.8783C86.0863 11 85.5023 10.812 85.1263 10.436C84.7503 10.06 84.5623 9.48 84.5623 8.696V5.42C84.5623 5.084 84.7303 4.916 85.0663 4.916C85.4023 4.916 85.5703 5.084 85.5703 5.42V8.696C85.5703 9.2 85.6603 9.542 85.8403 9.722C86.0243 9.902 86.3703 9.992 86.8783 9.992H87.4663C88.1223 9.992 88.5983 9.886 88.8943 9.674C89.1903 9.458 89.3383 9.132 89.3383 8.696V5.42C89.3383 5.084 89.5063 4.916 89.8423 4.916C90.1783 4.916 90.3463 5.084 90.3463 5.42V11.66C90.3463 12.24 90.2023 12.674 89.9143 12.962C89.6263 13.254 89.1943 13.4 88.6183 13.4H86.2903ZM97.116 11C96.78 11 96.612 10.832 96.612 10.496V3.368C96.612 3.032 96.78 2.864 97.116 2.864H99.924C100.656 2.864 101.216 3.06 101.604 3.452C101.996 3.84 102.192 4.4 102.192 5.132V5.492C102.192 6.224 101.996 6.786 101.604 7.178C101.216 7.566 100.656 7.76 99.924 7.76H97.62V10.496C97.62 10.832 97.452 11 97.116 11ZM97.62 6.752H99.924C100.38 6.752 100.704 6.656 100.896 6.464C101.088 6.272 101.184 5.948 101.184 5.492V5.132C101.184 4.68 101.088 4.358 100.896 4.166C100.704 3.97 100.38 3.872 99.924 3.872H97.62V6.752ZM104.307 3.932C103.927 3.932 103.737 3.74 103.737 3.356V3.002C103.737 2.626 103.927 2.438 104.307 2.438H104.655C105.019 2.438 105.201 2.626 105.201 3.002V3.356C105.201 3.74 105.019 3.932 104.655 3.932H104.307ZM104.475 11C104.139 11 103.971 10.832 103.971 10.496V5.42C103.971 5.084 104.139 4.916 104.475 4.916C104.811 4.916 104.979 5.084 104.979 5.42V10.496C104.979 10.832 104.811 11 104.475 11ZM28.9012 25C28.5652 25 28.3972 24.832 28.3972 24.496V17.368C28.3972 17.032 28.5652 16.864 28.9012 16.864H33.3172C33.4732 16.864 33.5952 16.91 33.6832 17.002C33.7752 17.09 33.8212 17.212 33.8212 17.368C33.8212 17.704 33.6532 17.872 33.3172 17.872H29.4052V20.392H31.8172C32.1532 20.392 32.3212 20.56 32.3212 20.896C32.3212 21.232 32.1532 21.4 31.8172 21.4H29.4052V24.496C29.4052 24.832 29.2372 25 28.9012 25ZM36.2854 25C35.4894 25 34.8974 24.808 34.5094 24.424C34.1254 24.04 33.9334 23.452 33.9334 22.66V21.268C33.9334 20.464 34.1254 19.872 34.5094 19.492C34.8974 19.108 35.4894 18.916 36.2854 18.916H37.2694C38.0694 18.916 38.6614 19.108 39.0454 19.492C39.4294 19.876 39.6214 20.468 39.6214 21.268V22.648C39.6214 23.444 39.4294 24.036 39.0454 24.424C38.6614 24.808 38.0694 25 37.2694 25H36.2854ZM34.9414 22.66C34.9414 23.176 35.0354 23.528 35.2234 23.716C35.4114 23.9 35.7654 23.992 36.2854 23.992H37.2694C37.7934 23.992 38.1474 23.898 38.3314 23.71C38.5194 23.522 38.6134 23.168 38.6134 22.648V21.268C38.6134 20.744 38.5194 20.39 38.3314 20.206C38.1474 20.018 37.7934 19.924 37.2694 19.924H36.2854C35.9374 19.924 35.6654 19.964 35.4694 20.044C35.2774 20.12 35.1414 20.256 35.0614 20.452C34.9814 20.644 34.9414 20.916 34.9414 21.268V22.66ZM46.7709 18.916C47.1069 18.916 47.2749 19.084 47.2749 19.42V24.496C47.2749 24.832 47.1069 25 46.7709 25C46.4349 25 46.2669 24.832 46.2669 24.496V24.298C45.8429 24.766 45.2189 25 44.3949 25H44.0589C43.2629 25 42.6709 24.808 42.2829 24.424C41.8989 24.036 41.7069 23.444 41.7069 22.648V19.42C41.7069 19.084 41.8749 18.916 42.2109 18.916C42.5469 18.916 42.7149 19.084 42.7149 19.42V22.648C42.7149 23.168 42.8089 23.522 42.9969 23.71C43.1889 23.898 43.5429 23.992 44.0589 23.992H44.3949C44.8749 23.992 45.2929 23.936 45.6489 23.824C46.0089 23.712 46.2149 23.54 46.2669 23.308V19.42C46.2669 19.084 46.4349 18.916 46.7709 18.916ZM50.2762 25C49.9402 25 49.7722 24.832 49.7722 24.496V19.42C49.7722 19.084 49.9402 18.916 50.2762 18.916C50.6122 18.916 50.7802 19.084 50.7802 19.42V19.618C51.2042 19.15 51.8282 18.916 52.6522 18.916H52.9882C53.7882 18.916 54.3802 19.108 54.7642 19.492C55.1482 19.876 55.3402 20.468 55.3402 21.268V24.496C55.3402 24.832 55.1722 25 54.8362 25C54.5002 25 54.3322 24.832 54.3322 24.496V21.268C54.3322 20.744 54.2362 20.39 54.0442 20.206C53.8562 20.018 53.5042 19.924 52.9882 19.924H52.6522C52.1722 19.924 51.7542 19.98 51.3982 20.092C51.0422 20.2 50.8362 20.372 50.7802 20.608V24.496C50.7802 24.832 50.6122 25 50.2762 25ZM59.7815 25C58.9855 25 58.3935 24.808 58.0055 24.424C57.6215 24.036 57.4295 23.444 57.4295 22.648V21.268C57.4295 20.468 57.6215 19.876 58.0055 19.492C58.3935 19.108 58.9855 18.916 59.7815 18.916H62.1095V17.056C62.1095 16.72 62.2775 16.552 62.6135 16.552C62.9495 16.552 63.1175 16.72 63.1175 17.056V24.496C63.1175 24.832 62.9495 25 62.6135 25C62.2775 25 62.1095 24.832 62.1095 24.496V24.412C61.9215 24.604 61.6755 24.75 61.3715 24.85C61.0675 24.95 60.6895 25 60.2375 25H59.7815ZM59.7815 23.992H60.2375C60.7655 23.992 61.2095 23.924 61.5695 23.788C61.9295 23.652 62.1095 23.444 62.1095 23.164V19.924H59.7815C59.2615 19.924 58.9075 20.02 58.7195 20.212C58.5315 20.4 58.4375 20.752 58.4375 21.268V22.648C58.4375 23.168 58.5315 23.522 58.7195 23.71C58.9115 23.898 59.2655 23.992 59.7815 23.992ZM67.3707 25C66.6987 25 66.1987 24.836 65.8707 24.508C65.5427 24.18 65.3787 23.68 65.3787 23.008C65.3787 22.336 65.5407 21.836 65.8647 21.508C66.1927 21.18 66.6947 21.016 67.3707 21.016H69.9087C69.8847 20.596 69.7747 20.31 69.5787 20.158C69.3827 20.002 69.0467 19.924 68.5707 19.924H67.8747C67.4747 19.924 67.1767 19.952 66.9807 20.008C66.7847 20.06 66.6467 20.156 66.5667 20.296C66.4947 20.464 66.4207 20.58 66.3447 20.644C66.2687 20.708 66.1547 20.74 66.0027 20.74C65.8347 20.74 65.7027 20.694 65.6067 20.602C65.5107 20.506 65.4827 20.38 65.5227 20.224C65.6427 19.772 65.8927 19.442 66.2727 19.234C66.6567 19.022 67.1907 18.916 67.8747 18.916H68.5707C69.3707 18.916 69.9627 19.108 70.3467 19.492C70.7307 19.876 70.9227 20.468 70.9227 21.268V24.496C70.9227 24.832 70.7547 25 70.4187 25C70.0827 25 69.9147 24.832 69.9147 24.496V24.226C69.4867 24.742 68.8627 25 68.0427 25H67.3707ZM67.3707 23.992H68.0427C68.3387 23.992 68.6167 23.966 68.8767 23.914C69.1367 23.858 69.3587 23.758 69.5427 23.614C69.7307 23.47 69.8547 23.264 69.9147 22.996V22.024H67.3707C66.9747 22.024 66.7107 22.09 66.5787 22.222C66.4507 22.354 66.3867 22.616 66.3867 23.008C66.3867 23.404 66.4507 23.668 66.5787 23.8C66.7107 23.928 66.9747 23.992 67.3707 23.992ZM75.8714 25C75.0794 25 74.4954 24.812 74.1194 24.436C73.7434 24.06 73.5554 23.48 73.5554 22.696V19.924H72.9674C72.6314 19.924 72.4634 19.756 72.4634 19.42C72.4634 19.084 72.6314 18.916 72.9674 18.916H73.5554V18.04C73.5554 17.704 73.7234 17.536 74.0594 17.536C74.3954 17.536 74.5634 17.704 74.5634 18.04V18.916H75.9434C76.2794 18.916 76.4474 19.084 76.4474 19.42C76.4474 19.756 76.2794 19.924 75.9434 19.924H74.5634V22.696C74.5634 23.204 74.6554 23.548 74.8394 23.728C75.0234 23.904 75.3674 23.992 75.8714 23.992C76.0274 23.992 76.1494 24.032 76.2374 24.112C76.3294 24.192 76.3754 24.32 76.3754 24.496C76.3754 24.832 76.2074 25 75.8714 25ZM78.6668 17.932C78.2868 17.932 78.0968 17.74 78.0968 17.356V17.002C78.0968 16.626 78.2868 16.438 78.6668 16.438H79.0148C79.3788 16.438 79.5608 16.626 79.5608 17.002V17.356C79.5608 17.74 79.3788 17.932 79.0148 17.932H78.6668ZM78.8348 25C78.4988 25 78.3308 24.832 78.3308 24.496V19.42C78.3308 19.084 78.4988 18.916 78.8348 18.916C79.1708 18.916 79.3388 19.084 79.3388 19.42V24.496C79.3388 24.832 79.1708 25 78.8348 25ZM83.8987 25C83.1027 25 82.5107 24.808 82.1227 24.424C81.7387 24.04 81.5467 23.452 81.5467 22.66V21.268C81.5467 20.464 81.7387 19.872 82.1227 19.492C82.5107 19.108 83.1027 18.916 83.8987 18.916H84.8827C85.6827 18.916 86.2747 19.108 86.6587 19.492C87.0427 19.876 87.2347 20.468 87.2347 21.268V22.648C87.2347 23.444 87.0427 24.036 86.6587 24.424C86.2747 24.808 85.6827 25 84.8827 25H83.8987ZM82.5547 22.66C82.5547 23.176 82.6487 23.528 82.8367 23.716C83.0247 23.9 83.3787 23.992 83.8987 23.992H84.8827C85.4067 23.992 85.7607 23.898 85.9447 23.71C86.1327 23.522 86.2267 23.168 86.2267 22.648V21.268C86.2267 20.744 86.1327 20.39 85.9447 20.206C85.7607 20.018 85.4067 19.924 84.8827 19.924H83.8987C83.5507 19.924 83.2787 19.964 83.0827 20.044C82.8907 20.12 82.7547 20.256 82.6747 20.452C82.5947 20.644 82.5547 20.916 82.5547 21.268V22.66ZM89.9441 25C89.6081 25 89.4401 24.832 89.4401 24.496V19.42C89.4401 19.084 89.6081 18.916 89.9441 18.916C90.2801 18.916 90.4481 19.084 90.4481 19.42V19.618C90.8721 19.15 91.4961 18.916 92.3201 18.916H92.6561C93.4561 18.916 94.0481 19.108 94.4321 19.492C94.8161 19.876 95.0081 20.468 95.0081 21.268V24.496C95.0081 24.832 94.8401 25 94.5041 25C94.1681 25 94.0001 24.832 94.0001 24.496V21.268C94.0001 20.744 93.9041 20.39 93.7121 20.206C93.5241 20.018 93.1721 19.924 92.6561 19.924H92.3201C91.8401 19.924 91.4221 19.98 91.0661 20.092C90.7101 20.2 90.5041 20.372 90.4481 20.608V24.496C90.4481 24.832 90.2801 25 89.9441 25Z" fill="black"/>
<defs>
<clipPath id="clip0_47_74">
<rect width="25" height="25" fill="white" transform="translate(0.14917 1.5)"/>
</clipPath>
</defs>
</svg>
