<svg width="101" height="28" viewBox="0 0 101 28" fill="none" xmlns="http://www.w3.org/2000/svg">
<g clip-path="url(#clip0_47_72)">
<path d="M5.14321 2.00037C5.02053 2.00411 4.88842 2.04896 4.7385 2.16587C4.37148 2.02591 4.01538 1.97725 3.69706 2.26224C3.20551 2.1992 3.04579 2.32932 2.92474 2.48125C2.81682 2.47905 2.11731 2.37153 1.79646 2.84477C0.990301 2.75046 0.735508 3.31369 1.02422 3.83898C0.859527 4.09101 0.688899 4.34004 1.07395 4.82063C0.937754 5.08822 1.02221 5.37857 1.34306 5.72991C1.25845 6.1062 1.42485 6.3716 1.72343 6.5785C1.66755 7.09336 2.20088 7.39274 2.36008 7.49938C2.42124 7.79934 2.54867 8.0825 3.15779 8.23897C3.25828 8.68609 3.62432 8.76331 3.97887 8.8571C2.80718 9.53064 1.8024 10.4167 1.80923 12.591L1.63756 12.8938C0.294055 13.7017 -0.914672 16.2986 0.975531 18.4092C1.09896 19.0699 1.30603 19.5445 1.49039 20.0697C1.76611 22.1861 3.56569 23.1772 4.04039 23.2944C4.7359 23.8183 5.47668 24.3154 6.47922 24.6636C7.4241 25.6274 8.44787 25.9947 9.47721 25.9941C9.49235 25.9941 11.5759 25.6275 12.5209 24.6636C13.5233 24.3154 14.2641 23.8183 14.9598 23.2944C15.4343 23.1772 17.2339 22.1861 17.5096 20.0697C17.694 19.5445 17.901 19.0699 18.0245 18.4092C19.9146 16.2984 18.7059 13.7014 17.3625 12.8935L17.1905 12.5908C17.1974 10.4167 16.1926 9.5305 15.0209 8.85681C15.3754 8.76301 15.7416 8.6858 15.8419 8.23868C16.451 8.08213 16.5785 7.79905 16.6396 7.49909C16.7989 7.39244 17.3322 7.09307 17.2764 6.5782C17.5749 6.37131 17.7413 6.10584 17.6566 5.72962C17.9776 5.37828 18.0619 5.08793 17.9258 4.82026C18.311 4.33997 18.14 4.09094 17.9756 3.8389C18.2641 3.31362 18.0095 2.75031 17.203 2.8447C16.8824 2.37145 16.183 2.4789 16.0747 2.4811C15.9538 2.32925 15.794 2.19912 15.3025 2.26217C14.9842 1.97718 14.6282 2.02576 14.2611 2.1658C13.8251 1.82562 13.5367 2.09828 13.2072 2.2014C12.6793 2.03083 12.5586 2.26444 12.2992 2.35964C11.7236 2.23934 11.5487 2.50121 11.2728 2.77762L10.9517 2.77131C10.0835 3.27729 9.65215 4.3076 9.49926 4.83729C9.34637 4.30753 8.91597 3.27721 8.04791 2.77131L7.72691 2.77762C7.4506 2.50121 7.27574 2.23934 6.7001 2.35964C6.4407 2.26444 6.32047 2.03083 5.79218 2.2014C5.57591 2.13373 5.377 1.9931 5.14284 2.0003L-0.816406 12.3486" fill="black"/>
<path d="M3.41454 4.22636C5.71799 5.40074 7.05712 6.35076 7.79077 7.15986C7.41508 8.64896 5.45511 8.71692 4.73845 8.67516C4.88518 8.60764 5.00764 8.52669 5.05106 8.40243C4.87123 8.27604 4.23362 8.38907 3.78845 8.14181C3.95945 8.10672 4.03946 8.07259 4.11939 7.94782C3.69887 7.8152 3.24584 7.70085 2.97939 7.48111C3.12316 7.48287 3.25742 7.51296 3.44519 7.38415C3.06853 7.18342 2.66656 7.0243 2.35425 6.71744C2.549 6.71274 2.75896 6.71553 2.82005 6.6447C2.4753 6.43348 2.18436 6.19861 1.9436 5.94166C2.21613 5.97417 2.33124 5.94621 2.39715 5.89924C2.13649 5.63524 1.80666 5.41234 1.64939 5.08705C1.85171 5.15604 2.03689 5.18247 2.17034 5.08103C2.08179 4.88346 1.70239 4.76691 1.48389 4.30518C1.69697 4.32566 1.92289 4.35113 1.96809 4.30518C1.86923 3.9068 1.69957 3.6828 1.53317 3.45072C1.98909 3.44404 2.67992 3.45248 2.64868 3.41439L2.36672 3.12955C2.81211 3.01094 3.26781 3.14856 3.59868 3.25072C3.74719 3.13483 3.596 2.98826 3.41476 2.83861C3.79328 2.88859 4.13528 2.97461 4.44447 3.09315C4.60961 2.9457 4.33723 2.79817 4.20541 2.65072C4.79018 2.76037 5.03793 2.91458 5.28411 3.06892C5.46275 2.8996 5.29435 2.75568 5.17382 2.6083C5.61475 2.76977 5.84186 2.97828 6.08092 3.18408C6.16197 3.0759 6.28688 2.99656 6.13607 2.73557C6.44912 2.91399 6.68491 3.12426 6.85933 3.35986C7.05304 3.23788 6.97474 3.07113 6.97578 2.91737C7.30115 3.17909 7.50763 3.45762 7.76034 3.72955C7.81126 3.69285 7.85579 3.56859 7.8952 3.37197C8.6713 4.11656 9.76804 5.99215 8.17708 6.73579C6.82311 5.63149 5.20603 4.82878 3.41402 4.22665L3.41454 4.22636V4.22636ZM15.6367 4.22636C13.3336 5.40089 11.9944 6.35061 11.2609 7.15986C11.6366 8.64896 13.5965 8.71692 14.3131 8.67516C14.1664 8.60764 14.0439 8.52669 14.0006 8.40243C14.1804 8.27604 14.818 8.38907 15.2631 8.14181C15.0921 8.10672 15.0122 8.07259 14.9322 7.94782C15.3528 7.8152 15.8058 7.70085 16.0722 7.48111C15.9284 7.48287 15.7942 7.51296 15.6064 7.38415C15.9831 7.18342 16.3851 7.0243 16.6974 6.71744C16.5026 6.71274 16.2926 6.71553 16.2316 6.6447C16.5763 6.43348 16.8673 6.19861 17.108 5.94166C16.8354 5.97417 16.7204 5.94621 16.6545 5.89924C16.9151 5.63524 17.245 5.41234 17.4023 5.08705C17.1999 5.15604 17.0147 5.18247 16.8812 5.08103C16.9698 4.88346 17.3493 4.76691 17.5677 4.30518C17.3547 4.32566 17.1287 4.35113 17.0835 4.30518C17.1826 3.90665 17.3522 3.68265 17.5186 3.45058C17.0627 3.4439 16.3719 3.45234 16.4031 3.41425L16.6851 3.12933C16.2397 3.0108 15.784 3.14841 15.4531 3.25058C15.3046 3.13469 15.4557 2.98812 15.637 2.83847C15.2585 2.88837 14.9164 2.97447 14.6073 3.093C14.4421 2.94555 14.7146 2.79803 14.8464 2.65058C14.2616 2.76023 14.0139 2.91443 13.7676 3.06878C13.589 2.89946 13.7574 2.75553 13.878 2.60815C13.437 2.76962 13.2099 2.97814 12.9709 3.18393C12.8898 3.07575 12.7649 2.99641 12.9157 2.73542C12.6027 2.91384 12.3669 3.12412 12.1925 3.35971C11.9988 3.23773 12.0771 3.07091 12.076 2.91722C11.7506 3.17894 11.5442 3.4574 11.2915 3.7294C11.2405 3.6927 11.196 3.56845 11.1566 3.37175C10.3805 4.11641 9.28376 5.99201 10.8747 6.73564C12.2279 5.63105 13.8449 4.82848 15.637 4.22636H15.6367" fill="#75A928"/>
<path d="M12.3154 19.3896C12.3234 20.7792 11.0946 21.9116 9.57082 21.9188C8.04696 21.9262 6.80513 20.8057 6.79712 19.4161C6.79704 19.4072 6.79704 19.3984 6.79712 19.3896C6.7891 18.0001 8.01787 16.8677 9.54173 16.8603C11.0656 16.853 12.3073 17.9735 12.3154 19.3631V19.3896V19.3896ZM7.95976 12.2021C9.10302 12.9429 9.30913 14.6219 8.42006 15.9522C7.53099 17.2826 5.88349 17.7607 4.74022 17.02C3.59695 16.2793 3.39092 14.6003 4.27992 13.2699C5.16898 11.9395 6.81649 11.4614 7.95976 12.2021ZM11.0455 12.068C9.90228 12.8087 9.69618 14.4878 10.5852 15.8181C11.4742 17.1485 13.1217 17.6266 14.265 16.8859C15.4083 16.1452 15.6144 14.4662 14.7253 13.1358C13.8363 11.8054 12.1888 11.3273 11.0455 12.068ZM2.2458 13.4131C3.48013 13.0859 2.66254 18.4629 1.65821 18.0217C0.553466 17.143 0.197661 14.5698 2.2458 13.4131V13.4131ZM16.5103 13.3461C15.2758 13.019 16.0935 18.3962 17.0979 17.955C18.2026 17.0763 18.5584 14.5027 16.5103 13.3461ZM12.3164 9.34194C14.4465 8.98627 16.219 10.2378 16.1475 12.522C16.0774 13.3977 11.5316 9.47236 12.3164 9.34194V9.34194ZM6.43085 9.27493C4.30055 8.91919 2.5282 10.171 2.59975 12.455C2.66981 13.3307 7.21571 9.40536 6.43085 9.27493V9.27493ZM9.49074 8.74224C8.21937 8.7095 6.99922 9.6753 6.99625 10.2355C6.99276 10.9162 8.00147 11.6131 9.49942 11.6308C11.0291 11.6416 12.0052 11.073 12.0101 10.3705C12.0157 9.5746 10.6189 8.72991 9.49074 8.74216V8.74224ZM9.56837 22.7004C10.6768 22.6525 12.1642 23.0534 12.1671 23.5853C12.1855 24.1017 10.8182 25.2685 9.4949 25.246C8.12437 25.3045 6.78049 24.1359 6.79808 23.7308C6.77752 23.1369 8.46682 22.6732 9.56837 22.7004V22.7004ZM5.47417 19.5485C6.26334 20.4887 6.62315 22.1405 5.96453 22.6274C5.34147 22.9992 3.82837 22.8461 2.75294 21.3182C2.0276 20.0362 2.12104 18.7316 2.63033 18.3483C3.39189 17.8896 4.56855 18.5093 5.47424 19.5485H5.47417ZM13.5046 19.2504C12.6508 20.2394 12.1753 22.0433 12.7981 22.6243C13.3938 23.0757 14.9926 23.0125 16.1735 21.3921C17.0311 20.3037 16.7438 18.4861 16.2539 18.0034C15.5263 17.4469 14.4817 18.1592 13.5046 19.2501V19.2504Z" fill="#BC1142"/>
</g>
<path d="M27.48 11.024C27.348 11.108 27.222 11.134 27.102 11.102C26.982 11.07 26.88 10.988 26.796 10.856L24.936 7.76H23.256V10.496C23.256 10.832 23.088 11 22.752 11C22.416 11 22.248 10.832 22.248 10.496V3.368C22.248 3.032 22.416 2.864 22.752 2.864H25.56C26.292 2.864 26.852 3.06 27.24 3.452C27.632 3.84 27.828 4.4 27.828 5.132V5.492C27.828 6.128 27.68 6.636 27.384 7.016C27.088 7.392 26.66 7.626 26.1 7.718L27.672 10.34C27.824 10.62 27.76 10.848 27.48 11.024ZM23.256 6.752H25.56C26.016 6.752 26.34 6.656 26.532 6.464C26.724 6.272 26.82 5.948 26.82 5.492V5.132C26.82 4.68 26.724 4.358 26.532 4.166C26.34 3.97 26.016 3.872 25.56 3.872H23.256V6.752ZM31.62 11C30.948 11 30.448 10.836 30.12 10.508C29.792 10.18 29.628 9.68 29.628 9.008C29.628 8.336 29.79 7.836 30.114 7.508C30.442 7.18 30.944 7.016 31.62 7.016H34.158C34.134 6.596 34.024 6.31 33.828 6.158C33.632 6.002 33.296 5.924 32.82 5.924H32.124C31.724 5.924 31.426 5.952 31.23 6.008C31.034 6.06 30.896 6.156 30.816 6.296C30.744 6.464 30.67 6.58 30.594 6.644C30.518 6.708 30.404 6.74 30.252 6.74C30.084 6.74 29.952 6.694 29.856 6.602C29.76 6.506 29.732 6.38 29.772 6.224C29.892 5.772 30.142 5.442 30.522 5.234C30.906 5.022 31.44 4.916 32.124 4.916H32.82C33.62 4.916 34.212 5.108 34.596 5.492C34.98 5.876 35.172 6.468 35.172 7.268V10.496C35.172 10.832 35.004 11 34.668 11C34.332 11 34.164 10.832 34.164 10.496V10.226C33.736 10.742 33.112 11 32.292 11H31.62ZM31.62 9.992H32.292C32.588 9.992 32.866 9.966 33.126 9.914C33.386 9.858 33.608 9.758 33.792 9.614C33.98 9.47 34.104 9.264 34.164 8.996V8.024H31.62C31.224 8.024 30.96 8.09 30.828 8.222C30.7 8.354 30.636 8.616 30.636 9.008C30.636 9.404 30.7 9.668 30.828 9.8C30.96 9.928 31.224 9.992 31.62 9.992ZM38.9807 11C38.4727 11 38.0707 10.896 37.7747 10.688C37.4787 10.476 37.2887 10.16 37.2047 9.74C37.1767 9.572 37.2087 9.44 37.3007 9.344C37.3967 9.248 37.5287 9.2 37.6967 9.2C37.8607 9.2 37.9787 9.242 38.0507 9.326C38.1267 9.406 38.1887 9.528 38.2367 9.692C38.2847 9.812 38.3647 9.892 38.4767 9.932C38.5927 9.972 38.7607 9.992 38.9807 9.992H40.9487C41.2607 9.992 41.4707 9.942 41.5787 9.842C41.6867 9.738 41.7407 9.524 41.7407 9.2C41.7407 8.88 41.6867 8.668 41.5787 8.564C41.4707 8.46 41.2607 8.408 40.9487 8.408H39.0167C38.4407 8.408 38.0067 8.262 37.7147 7.97C37.4227 7.678 37.2767 7.244 37.2767 6.668C37.2767 6.08 37.4187 5.642 37.7027 5.354C37.9907 5.062 38.4287 4.916 39.0167 4.916H40.8887C41.8287 4.916 42.3847 5.312 42.5567 6.104C42.5887 6.272 42.5567 6.402 42.4607 6.494C42.3647 6.586 42.2327 6.632 42.0647 6.632C41.9087 6.632 41.7927 6.592 41.7167 6.512C41.6407 6.428 41.5807 6.312 41.5367 6.164C41.4887 6.068 41.4147 6.004 41.3147 5.972C41.2187 5.94 41.0767 5.924 40.8887 5.924H39.0167C38.7127 5.924 38.5147 5.97 38.4227 6.062C38.3307 6.154 38.2847 6.356 38.2847 6.668C38.2847 6.956 38.3327 7.15 38.4287 7.25C38.5287 7.35 38.7247 7.4 39.0167 7.4H40.9487C41.5487 7.4 41.9987 7.55 42.2987 7.85C42.5987 8.15 42.7487 8.6 42.7487 9.2C42.7487 9.804 42.5987 10.256 42.2987 10.556C41.9987 10.852 41.5487 11 40.9487 11H38.9807ZM45.3926 13.4C45.0566 13.4 44.8886 13.232 44.8886 12.896V5.42C44.8886 5.084 45.0566 4.916 45.3926 4.916C45.7286 4.916 45.8966 5.084 45.8966 5.42V5.57C46.1126 5.354 46.3786 5.192 46.6946 5.084C47.0146 4.972 47.3726 4.916 47.7686 4.916H48.2246C49.0246 4.916 49.6166 5.108 50.0006 5.492C50.3846 5.876 50.5766 6.468 50.5766 7.268V8.648C50.5766 9.444 50.3846 10.036 50.0006 10.424C49.6166 10.808 49.0246 11 48.2246 11H45.8966V12.896C45.8966 13.232 45.7286 13.4 45.3926 13.4ZM45.8966 9.992H48.2246C48.7486 9.992 49.1026 9.898 49.2866 9.71C49.4746 9.522 49.5686 9.168 49.5686 8.648V7.268C49.5686 6.744 49.4746 6.39 49.2866 6.206C49.1026 6.018 48.7486 5.924 48.2246 5.924H47.7686C47.2686 5.924 46.8366 5.984 46.4726 6.104C46.1086 6.224 45.9166 6.414 45.8966 6.674V9.992ZM53.2911 11C52.9551 11 52.7871 10.832 52.7871 10.496V3.056C52.7871 2.72 52.9551 2.552 53.2911 2.552C53.6271 2.552 53.7951 2.72 53.7951 3.056V5.558C54.0031 5.346 54.2631 5.186 54.5751 5.078C54.8871 4.97 55.2511 4.916 55.6671 4.916H56.1231C56.9231 4.916 57.5151 5.108 57.8991 5.492C58.2831 5.876 58.4751 6.468 58.4751 7.268V8.648C58.4751 9.444 58.2831 10.036 57.8991 10.424C57.5151 10.808 56.9231 11 56.1231 11H55.6671C55.2511 11 54.8871 10.946 54.5751 10.838C54.2631 10.73 54.0031 10.572 53.7951 10.364V10.496C53.7951 10.832 53.6271 11 53.2911 11ZM55.6671 9.992H56.1231C56.6471 9.992 57.0011 9.898 57.1851 9.71C57.3731 9.518 57.4671 9.164 57.4671 8.648V7.268C57.4671 6.744 57.3711 6.39 57.1791 6.206C56.9911 6.018 56.6391 5.924 56.1231 5.924H55.6671C55.1391 5.924 54.6951 5.992 54.3351 6.128C53.9751 6.26 53.7951 6.468 53.7951 6.752V9.164C53.7951 9.444 53.9751 9.652 54.3351 9.788C54.6951 9.924 55.1391 9.992 55.6671 9.992ZM61.4055 8.372V8.66C61.4055 9.176 61.4995 9.528 61.6875 9.716C61.8755 9.9 62.2295 9.992 62.7495 9.992H63.7335C64.1415 9.992 64.4435 9.954 64.6395 9.878C64.8355 9.802 64.9655 9.668 65.0295 9.476C65.0735 9.324 65.1335 9.208 65.2095 9.128C65.2895 9.048 65.4095 9.008 65.5695 9.008C65.7375 9.008 65.8655 9.052 65.9535 9.14C66.0415 9.228 66.0695 9.356 66.0375 9.524C65.9495 10.02 65.7135 10.39 65.3295 10.634C64.9455 10.878 64.4135 11 63.7335 11H62.7495C61.9535 11 61.3615 10.808 60.9735 10.424C60.5895 10.04 60.3975 9.452 60.3975 8.66V7.268C60.3975 6.456 60.5895 5.86 60.9735 5.48C61.3615 5.096 61.9535 4.908 62.7495 4.916H63.7335C64.5335 4.916 65.1255 5.108 65.5095 5.492C65.8935 5.872 66.0855 6.464 66.0855 7.268V7.868C66.0855 8.204 65.9175 8.372 65.5815 8.372H61.4055ZM62.7495 5.924C62.2295 5.916 61.8755 6.006 61.6875 6.194C61.4995 6.382 61.4055 6.74 61.4055 7.268V7.364H65.0775V7.268C65.0775 6.744 64.9835 6.39 64.7955 6.206C64.6115 6.018 64.2575 5.924 63.7335 5.924H62.7495ZM68.795 11C68.459 11 68.291 10.832 68.291 10.496V5.42C68.291 5.084 68.459 4.916 68.795 4.916C69.131 4.916 69.299 5.084 69.299 5.42V5.888C69.535 5.568 69.835 5.326 70.199 5.162C70.567 4.998 70.987 4.916 71.459 4.916C71.795 4.916 71.963 5.084 71.963 5.42C71.963 5.756 71.795 5.924 71.459 5.924C70.767 5.924 70.239 6.052 69.875 6.308C69.511 6.564 69.319 6.902 69.299 7.322V10.496C69.299 10.832 69.131 11 68.795 11ZM73.9161 11C73.5801 11 73.4121 10.832 73.4121 10.496V5.42C73.4121 5.084 73.5801 4.916 73.9161 4.916C74.2521 4.916 74.4201 5.084 74.4201 5.42V5.888C74.6561 5.568 74.9561 5.326 75.3201 5.162C75.6881 4.998 76.1081 4.916 76.5801 4.916C76.9161 4.916 77.0841 5.084 77.0841 5.42C77.0841 5.756 76.9161 5.924 76.5801 5.924C75.8881 5.924 75.3601 6.052 74.9961 6.308C74.6321 6.564 74.4401 6.902 74.4201 7.322V10.496C74.4201 10.832 74.2521 11 73.9161 11ZM80.1412 13.4C79.5612 13.4 79.1272 13.254 78.8392 12.962C78.5552 12.674 78.4132 12.24 78.4132 11.66C78.4132 11.324 78.5812 11.156 78.9172 11.156C79.2532 11.156 79.4212 11.324 79.4212 11.66C79.4212 11.96 79.4652 12.156 79.5532 12.248C79.6452 12.344 79.8412 12.392 80.1412 12.392H82.4692C82.7652 12.392 82.9592 12.344 83.0512 12.248C83.1432 12.156 83.1892 11.96 83.1892 11.66V10.136C82.9492 10.496 82.6692 10.73 82.3492 10.838C82.0332 10.946 81.6892 11 81.3172 11H80.7292C79.9372 11 79.3532 10.812 78.9772 10.436C78.6012 10.06 78.4132 9.48 78.4132 8.696V5.42C78.4132 5.084 78.5812 4.916 78.9172 4.916C79.2532 4.916 79.4212 5.084 79.4212 5.42V8.696C79.4212 9.2 79.5112 9.542 79.6912 9.722C79.8752 9.902 80.2212 9.992 80.7292 9.992H81.3172C81.9732 9.992 82.4492 9.886 82.7452 9.674C83.0412 9.458 83.1892 9.132 83.1892 8.696V5.42C83.1892 5.084 83.3572 4.916 83.6932 4.916C84.0292 4.916 84.1972 5.084 84.1972 5.42V11.66C84.1972 12.24 84.0532 12.674 83.7652 12.962C83.4772 13.254 83.0452 13.4 82.4692 13.4H80.1412ZM90.9668 11C90.6308 11 90.4628 10.832 90.4628 10.496V3.368C90.4628 3.032 90.6308 2.864 90.9668 2.864H93.7748C94.5068 2.864 95.0668 3.06 95.4548 3.452C95.8468 3.84 96.0428 4.4 96.0428 5.132V5.492C96.0428 6.224 95.8468 6.786 95.4548 7.178C95.0668 7.566 94.5068 7.76 93.7748 7.76H91.4708V10.496C91.4708 10.832 91.3028 11 90.9668 11ZM91.4708 6.752H93.7748C94.2308 6.752 94.5548 6.656 94.7468 6.464C94.9388 6.272 95.0348 5.948 95.0348 5.492V5.132C95.0348 4.68 94.9388 4.358 94.7468 4.166C94.5548 3.97 94.2308 3.872 93.7748 3.872H91.4708V6.752ZM98.1582 3.932C97.7782 3.932 97.5882 3.74 97.5882 3.356V3.002C97.5882 2.626 97.7782 2.438 98.1582 2.438H98.5062C98.8702 2.438 99.0522 2.626 99.0522 3.002V3.356C99.0522 3.74 98.8702 3.932 98.5062 3.932H98.1582ZM98.3262 11C97.9902 11 97.8222 10.832 97.8222 10.496V5.42C97.8222 5.084 97.9902 4.916 98.3262 4.916C98.6622 4.916 98.8302 5.084 98.8302 5.42V10.496C98.8302 10.832 98.6622 11 98.3262 11ZM22.752 25C22.416 25 22.248 24.832 22.248 24.496V17.368C22.248 17.032 22.416 16.864 22.752 16.864H27.168C27.324 16.864 27.446 16.91 27.534 17.002C27.626 17.09 27.672 17.212 27.672 17.368C27.672 17.704 27.504 17.872 27.168 17.872H23.256V20.392H25.668C26.004 20.392 26.172 20.56 26.172 20.896C26.172 21.232 26.004 21.4 25.668 21.4H23.256V24.496C23.256 24.832 23.088 25 22.752 25ZM30.1362 25C29.3402 25 28.7482 24.808 28.3602 24.424C27.9762 24.04 27.7842 23.452 27.7842 22.66V21.268C27.7842 20.464 27.9762 19.872 28.3602 19.492C28.7482 19.108 29.3402 18.916 30.1362 18.916H31.1202C31.9202 18.916 32.5122 19.108 32.8962 19.492C33.2802 19.876 33.4722 20.468 33.4722 21.268V22.648C33.4722 23.444 33.2802 24.036 32.8962 24.424C32.5122 24.808 31.9202 25 31.1202 25H30.1362ZM28.7922 22.66C28.7922 23.176 28.8862 23.528 29.0742 23.716C29.2622 23.9 29.6162 23.992 30.1362 23.992H31.1202C31.6442 23.992 31.9982 23.898 32.1822 23.71C32.3702 23.522 32.4642 23.168 32.4642 22.648V21.268C32.4642 20.744 32.3702 20.39 32.1822 20.206C31.9982 20.018 31.6442 19.924 31.1202 19.924H30.1362C29.7882 19.924 29.5162 19.964 29.3202 20.044C29.1282 20.12 28.9922 20.256 28.9122 20.452C28.8322 20.644 28.7922 20.916 28.7922 21.268V22.66ZM40.6217 18.916C40.9577 18.916 41.1257 19.084 41.1257 19.42V24.496C41.1257 24.832 40.9577 25 40.6217 25C40.2857 25 40.1177 24.832 40.1177 24.496V24.298C39.6937 24.766 39.0697 25 38.2457 25H37.9097C37.1137 25 36.5217 24.808 36.1337 24.424C35.7497 24.036 35.5577 23.444 35.5577 22.648V19.42C35.5577 19.084 35.7257 18.916 36.0617 18.916C36.3977 18.916 36.5657 19.084 36.5657 19.42V22.648C36.5657 23.168 36.6597 23.522 36.8477 23.71C37.0397 23.898 37.3937 23.992 37.9097 23.992H38.2457C38.7257 23.992 39.1437 23.936 39.4997 23.824C39.8597 23.712 40.0657 23.54 40.1177 23.308V19.42C40.1177 19.084 40.2857 18.916 40.6217 18.916ZM44.127 25C43.791 25 43.623 24.832 43.623 24.496V19.42C43.623 19.084 43.791 18.916 44.127 18.916C44.463 18.916 44.631 19.084 44.631 19.42V19.618C45.055 19.15 45.679 18.916 46.503 18.916H46.839C47.639 18.916 48.231 19.108 48.615 19.492C48.999 19.876 49.191 20.468 49.191 21.268V24.496C49.191 24.832 49.023 25 48.687 25C48.351 25 48.183 24.832 48.183 24.496V21.268C48.183 20.744 48.087 20.39 47.895 20.206C47.707 20.018 47.355 19.924 46.839 19.924H46.503C46.023 19.924 45.605 19.98 45.249 20.092C44.893 20.2 44.687 20.372 44.631 20.608V24.496C44.631 24.832 44.463 25 44.127 25ZM53.6323 25C52.8363 25 52.2443 24.808 51.8563 24.424C51.4723 24.036 51.2803 23.444 51.2803 22.648V21.268C51.2803 20.468 51.4723 19.876 51.8563 19.492C52.2443 19.108 52.8363 18.916 53.6323 18.916H55.9603V17.056C55.9603 16.72 56.1283 16.552 56.4643 16.552C56.8003 16.552 56.9683 16.72 56.9683 17.056V24.496C56.9683 24.832 56.8003 25 56.4643 25C56.1283 25 55.9603 24.832 55.9603 24.496V24.412C55.7723 24.604 55.5263 24.75 55.2223 24.85C54.9183 24.95 54.5403 25 54.0883 25H53.6323ZM53.6323 23.992H54.0883C54.6163 23.992 55.0603 23.924 55.4203 23.788C55.7803 23.652 55.9603 23.444 55.9603 23.164V19.924H53.6323C53.1123 19.924 52.7583 20.02 52.5703 20.212C52.3823 20.4 52.2883 20.752 52.2883 21.268V22.648C52.2883 23.168 52.3823 23.522 52.5703 23.71C52.7623 23.898 53.1163 23.992 53.6323 23.992ZM61.2216 25C60.5496 25 60.0496 24.836 59.7216 24.508C59.3936 24.18 59.2296 23.68 59.2296 23.008C59.2296 22.336 59.3916 21.836 59.7156 21.508C60.0436 21.18 60.5456 21.016 61.2216 21.016H63.7596C63.7356 20.596 63.6256 20.31 63.4296 20.158C63.2336 20.002 62.8976 19.924 62.4216 19.924H61.7256C61.3256 19.924 61.0276 19.952 60.8316 20.008C60.6356 20.06 60.4976 20.156 60.4176 20.296C60.3456 20.464 60.2716 20.58 60.1956 20.644C60.1196 20.708 60.0056 20.74 59.8536 20.74C59.6856 20.74 59.5536 20.694 59.4576 20.602C59.3616 20.506 59.3336 20.38 59.3736 20.224C59.4936 19.772 59.7436 19.442 60.1236 19.234C60.5076 19.022 61.0416 18.916 61.7256 18.916H62.4216C63.2216 18.916 63.8136 19.108 64.1976 19.492C64.5816 19.876 64.7736 20.468 64.7736 21.268V24.496C64.7736 24.832 64.6056 25 64.2696 25C63.9336 25 63.7656 24.832 63.7656 24.496V24.226C63.3376 24.742 62.7136 25 61.8936 25H61.2216ZM61.2216 23.992H61.8936C62.1896 23.992 62.4676 23.966 62.7276 23.914C62.9876 23.858 63.2096 23.758 63.3936 23.614C63.5816 23.47 63.7056 23.264 63.7656 22.996V22.024H61.2216C60.8256 22.024 60.5616 22.09 60.4296 22.222C60.3016 22.354 60.2376 22.616 60.2376 23.008C60.2376 23.404 60.3016 23.668 60.4296 23.8C60.5616 23.928 60.8256 23.992 61.2216 23.992ZM69.7223 25C68.9303 25 68.3463 24.812 67.9703 24.436C67.5943 24.06 67.4062 23.48 67.4062 22.696V19.924H66.8183C66.4823 19.924 66.3143 19.756 66.3143 19.42C66.3143 19.084 66.4823 18.916 66.8183 18.916H67.4062V18.04C67.4062 17.704 67.5743 17.536 67.9103 17.536C68.2463 17.536 68.4143 17.704 68.4143 18.04V18.916H69.7943C70.1303 18.916 70.2983 19.084 70.2983 19.42C70.2983 19.756 70.1303 19.924 69.7943 19.924H68.4143V22.696C68.4143 23.204 68.5063 23.548 68.6903 23.728C68.8743 23.904 69.2183 23.992 69.7223 23.992C69.8783 23.992 70.0003 24.032 70.0883 24.112C70.1803 24.192 70.2263 24.32 70.2263 24.496C70.2263 24.832 70.0583 25 69.7223 25ZM72.5176 17.932C72.1376 17.932 71.9476 17.74 71.9476 17.356V17.002C71.9476 16.626 72.1376 16.438 72.5176 16.438H72.8656C73.2296 16.438 73.4116 16.626 73.4116 17.002V17.356C73.4116 17.74 73.2296 17.932 72.8656 17.932H72.5176ZM72.6856 25C72.3496 25 72.1816 24.832 72.1816 24.496V19.42C72.1816 19.084 72.3496 18.916 72.6856 18.916C73.0216 18.916 73.1896 19.084 73.1896 19.42V24.496C73.1896 24.832 73.0216 25 72.6856 25ZM77.7495 25C76.9535 25 76.3615 24.808 75.9735 24.424C75.5895 24.04 75.3975 23.452 75.3975 22.66V21.268C75.3975 20.464 75.5895 19.872 75.9735 19.492C76.3615 19.108 76.9535 18.916 77.7495 18.916H78.7335C79.5335 18.916 80.1255 19.108 80.5095 19.492C80.8935 19.876 81.0855 20.468 81.0855 21.268V22.648C81.0855 23.444 80.8935 24.036 80.5095 24.424C80.1255 24.808 79.5335 25 78.7335 25H77.7495ZM76.4055 22.66C76.4055 23.176 76.4995 23.528 76.6875 23.716C76.8755 23.9 77.2295 23.992 77.7495 23.992H78.7335C79.2575 23.992 79.6115 23.898 79.7955 23.71C79.9835 23.522 80.0775 23.168 80.0775 22.648V21.268C80.0775 20.744 79.9835 20.39 79.7955 20.206C79.6115 20.018 79.2575 19.924 78.7335 19.924H77.7495C77.4015 19.924 77.1295 19.964 76.9335 20.044C76.7415 20.12 76.6055 20.256 76.5255 20.452C76.4455 20.644 76.4055 20.916 76.4055 21.268V22.66ZM83.795 25C83.459 25 83.291 24.832 83.291 24.496V19.42C83.291 19.084 83.459 18.916 83.795 18.916C84.131 18.916 84.299 19.084 84.299 19.42V19.618C84.723 19.15 85.347 18.916 86.171 18.916H86.507C87.307 18.916 87.899 19.108 88.283 19.492C88.667 19.876 88.859 20.468 88.859 21.268V24.496C88.859 24.832 88.691 25 88.355 25C88.019 25 87.851 24.832 87.851 24.496V21.268C87.851 20.744 87.755 20.39 87.563 20.206C87.375 20.018 87.023 19.924 86.507 19.924H86.171C85.691 19.924 85.273 19.98 84.917 20.092C84.561 20.2 84.355 20.372 84.299 20.608V24.496C84.299 24.832 84.131 25 83.795 25Z" fill="black"/>
<defs>
<clipPath id="clip0_47_72">
<rect width="19" height="24" fill="white" transform="translate(0 2)"/>
</clipPath>
</defs>
</svg>
