<svg width="70" height="70" viewBox="0 0 70 70" fill="none" xmlns="http://www.w3.org/2000/svg">
<path d="M7.77778 0H0V7.77778H7.77778V0Z" fill="#272A31" fill-opacity="0.44"/>
<path d="M7.77778 15.5557H0V23.3334H7.77778V15.5557Z" fill="#272A31" fill-opacity="0.44"/>
<path d="M7.77778 31.1113H0V38.8891H7.77778V31.1113Z" fill="#272A31" fill-opacity="0.44"/>
<path d="M7.77778 46.6665H0V54.4443H7.77778V46.6665Z" fill="#272A31" fill-opacity="0.44"/>
<path d="M7.77778 62.2222H0V69.9999H7.77778V62.2222Z" fill="#272A31" fill-opacity="0.44"/>
<path d="M15.5551 7.77783H7.77734V15.5556H15.5551V7.77783Z" fill="#272A31" fill-opacity="0.44"/>
<path d="M15.5551 23.3335H7.77734V31.1113H15.5551V23.3335Z" fill="#272A31" fill-opacity="0.44"/>
<path d="M15.5551 38.8887H7.77734V46.6665H15.5551V38.8887Z" fill="#272A31" fill-opacity="0.44"/>
<path d="M15.5551 54.4443H7.77734V62.2221H15.5551V54.4443Z" fill="#272A31" fill-opacity="0.44"/>
<path d="M31.1108 7.77783H23.333V15.5556H31.1108V7.77783Z" fill="#272A31" fill-opacity="0.44"/>
<path d="M31.1108 23.3335H23.333V31.1113H31.1108V23.3335Z" fill="#272A31" fill-opacity="0.44"/>
<path d="M31.1108 38.8887H23.333V46.6665H31.1108V38.8887Z" fill="#272A31" fill-opacity="0.44"/>
<path d="M31.1108 54.4443H23.333V62.2221H31.1108V54.4443Z" fill="#272A31" fill-opacity="0.44"/>
<path d="M46.6665 7.77783H38.8887V15.5556H46.6665V7.77783Z" fill="#272A31" fill-opacity="0.44"/>
<path d="M46.6665 23.3335H38.8887V31.1113H46.6665V23.3335Z" fill="#272A31" fill-opacity="0.44"/>
<path d="M46.6665 38.8887H38.8887V46.6665H46.6665V38.8887Z" fill="#272A31" fill-opacity="0.44"/>
<path d="M46.6665 54.4443H38.8887V62.2221H46.6665V54.4443Z" fill="#272A31" fill-opacity="0.44"/>
<path d="M62.2221 7.77783H54.4443V15.5556H62.2221V7.77783Z" fill="#272A31" fill-opacity="0.44"/>
<path d="M62.2221 23.3335H54.4443V31.1113H62.2221V23.3335Z" fill="#272A31" fill-opacity="0.44"/>
<path d="M62.2221 38.8887H54.4443V46.6665H62.2221V38.8887Z" fill="#272A31" fill-opacity="0.44"/>
<path d="M62.2221 54.4443H54.4443V62.2221H62.2221V54.4443Z" fill="#272A31" fill-opacity="0.44"/>
<path d="M23.3334 0H15.5557V7.77778H23.3334V0Z" fill="#272A31" fill-opacity="0.44"/>
<path d="M23.3334 15.5557H15.5557V23.3334H23.3334V15.5557Z" fill="#272A31" fill-opacity="0.44"/>
<path d="M23.3334 31.1113H15.5557V38.8891H23.3334V31.1113Z" fill="#272A31" fill-opacity="0.44"/>
<path d="M23.3334 46.6665H15.5557V54.4443H23.3334V46.6665Z" fill="#272A31" fill-opacity="0.44"/>
<path d="M23.3334 62.2222H15.5557V69.9999H23.3334V62.2222Z" fill="#272A31" fill-opacity="0.44"/>
<path d="M70.0004 0H62.2227V7.77778H70.0004V0Z" fill="#272A31" fill-opacity="0.44"/>
<path d="M70.0004 15.5557H62.2227V23.3334H70.0004V15.5557Z" fill="#272A31" fill-opacity="0.44"/>
<path d="M70.0004 31.1113H62.2227V38.8891H70.0004V31.1113Z" fill="#272A31" fill-opacity="0.44"/>
<path d="M70.0004 46.6665H62.2227V54.4443H70.0004V46.6665Z" fill="#272A31" fill-opacity="0.44"/>
<path d="M70.0004 62.2222H62.2227V69.9999H70.0004V62.2222Z" fill="#272A31" fill-opacity="0.44"/>
<path d="M54.4448 0H46.667V7.77778H54.4448V0Z" fill="#272A31" fill-opacity="0.44"/>
<path d="M54.4448 15.5557H46.667V23.3334H54.4448V15.5557Z" fill="#272A31" fill-opacity="0.44"/>
<path d="M54.4448 31.1113H46.667V38.8891H54.4448V31.1113Z" fill="#272A31" fill-opacity="0.44"/>
<path d="M54.4448 46.6665H46.667V54.4443H54.4448V46.6665Z" fill="#272A31" fill-opacity="0.44"/>
<path d="M54.4448 62.2222H46.667V69.9999H54.4448V62.2222Z" fill="#272A31" fill-opacity="0.44"/>
<path d="M38.8891 0H31.1113V7.77778H38.8891V0Z" fill="#272A31" fill-opacity="0.44"/>
<path d="M38.8891 15.5557H31.1113V23.3334H38.8891V15.5557Z" fill="#272A31" fill-opacity="0.44"/>
<path d="M38.8891 31.1113H31.1113V38.8891H38.8891V31.1113Z" fill="#272A31" fill-opacity="0.44"/>
<path d="M38.8891 46.6665H31.1113V54.4443H38.8891V46.6665Z" fill="#272A31" fill-opacity="0.44"/>
<path d="M38.8891 62.2222H31.1113V69.9999H38.8891V62.2222Z" fill="#272A31" fill-opacity="0.44"/>
</svg>
