<svg width="46" height="57" viewBox="0 0 46 57" fill="none" xmlns="http://www.w3.org/2000/svg">
<mask id="path-1-outside-1_5_94" maskUnits="userSpaceOnUse" x="0" y="0" width="46" height="57" fill="#D7D7D7">
<rect fill="#D7D7D7" width="46" height="57"/>
<path d="M41.2181 25.9838L40.8181 25.2858C40.8289 20.3028 38.5044 18.273 35.7908 16.7266C36.6125 16.5118 37.4558 16.34 37.6936 15.309C39.1099 14.9546 39.4018 14.2995 39.5423 13.6122C39.9099 13.3652 41.1424 12.6779 41.0127 11.4966C41.7046 11.024 42.0938 10.4119 41.8884 9.55277C42.6344 8.74733 42.829 8.08149 42.5154 7.46936C43.4128 6.36322 43.0128 5.79404 42.6344 5.22486C43.3047 4.02206 42.71 2.73335 40.8397 2.94814C40.0937 1.86347 38.472 2.11048 38.2234 2.11048C37.9423 1.76682 37.5747 1.46612 36.4395 1.60573C35.7043 0.950637 34.8827 1.06877 34.0286 1.38021C33.0231 0.596242 32.3528 1.22986 31.5852 1.46612C30.3636 1.07951 30.0825 1.60573 29.4878 1.83125C28.1581 1.55203 27.7472 2.15343 27.1094 2.78705L26.3634 2.77631C24.3525 3.93615 23.3578 6.29878 23.0011 7.51232C22.6443 6.29878 21.6497 3.93615 19.6388 2.77631L18.8928 2.78705C18.2549 2.15343 17.8441 1.55203 16.5143 1.83125C15.9089 1.61647 15.6386 1.07951 14.4169 1.46612C13.9196 1.31577 13.4547 0.993594 12.9141 1.00433C12.6331 1.01507 12.3195 1.11173 11.9736 1.38021C11.1195 1.05803 10.2978 0.950637 9.56265 1.60573C8.42746 1.46612 8.04907 1.75608 7.77879 2.11048C7.53013 2.11048 5.90843 1.86347 5.16246 2.94814C3.2921 2.73335 2.7083 4.02206 3.37859 5.22486C3.0002 5.80478 2.60018 6.37396 3.49752 7.46936C3.18399 8.08149 3.37859 8.74733 4.12457 9.55277C3.92997 10.4119 4.31918 11.024 5.00029 11.4966C4.87055 12.6779 6.10304 13.3652 6.47062 13.6122C6.61117 14.2995 6.90307 14.9439 8.31935 15.309C8.5572 16.3292 9.40048 16.5118 10.2221 16.7266C7.5085 18.273 5.18408 20.3028 5.19489 25.2858L4.79487 25.9838C1.68122 27.831 -1.1189 33.7912 3.25967 38.6239C3.54076 40.1381 4.02727 41.2228 4.44891 42.4256C5.08678 47.2797 9.25993 49.5457 10.3519 49.8142C11.9628 51.017 13.6817 52.1554 15.9954 52.9501C18.19 55.1623 20.5685 56 22.947 56H23.0551C25.4444 56 27.8121 55.1623 29.996 52.9501C32.3204 52.1554 34.0286 51.017 35.6395 49.8142C36.7422 49.5457 40.9046 47.2797 41.5424 42.4256C41.9641 41.2228 42.4506 40.1381 42.7317 38.6239C47.121 33.7805 44.3209 27.831 41.2181 25.9838ZM38.818 25.1247C38.6558 27.1329 28.1256 18.1334 29.9419 17.8327C34.8827 17.0273 38.9801 19.8947 38.818 25.1247ZM34.1691 35.1229C31.5204 36.8197 27.704 35.7243 25.6498 32.6744C23.5957 29.6244 24.0714 25.7798 26.7201 24.083C29.3689 22.3862 33.1853 23.4816 35.2394 26.5315C37.2936 29.5815 36.8179 33.4261 34.1691 35.1229ZM26.8283 4.16167C26.9148 4.61272 27.0229 4.89194 27.1418 4.97785C27.7256 4.35498 28.2013 3.72136 28.9581 3.11996C28.9581 3.47436 28.7743 3.85023 29.2284 4.12945C29.6284 3.59249 30.1798 3.10922 30.9041 2.70113C30.5582 3.30253 30.8392 3.4851 31.0338 3.7321C31.5852 3.25957 32.115 2.78705 33.1312 2.41117C32.8501 2.74409 32.4609 3.07701 32.8718 3.46362C33.4448 3.10922 34.0178 2.75483 35.3692 2.50783C35.0665 2.84074 34.4286 3.1844 34.8178 3.51732C35.5313 3.24883 36.3314 3.04479 37.2071 2.9374C36.7855 3.28105 36.4395 3.61397 36.7855 3.88245C37.5531 3.64619 38.6126 3.33475 39.6396 3.60323L38.991 4.25832C38.9153 4.34424 40.5153 4.32276 41.5748 4.34424C41.1856 4.8812 40.7964 5.38594 40.5694 6.29878C40.6775 6.40617 41.1965 6.34174 41.6938 6.29878C41.1856 7.36197 40.3099 7.61971 40.1045 8.08149C40.418 8.31776 40.8397 8.25332 41.3154 8.09223C40.9478 8.83324 40.191 9.34873 39.5856 9.95012C39.7369 10.0575 40.0072 10.122 40.6343 10.0468C40.0721 10.6374 39.4018 11.1744 38.6017 11.6577C38.7423 11.8188 39.2288 11.8188 39.6829 11.8295C38.9585 12.5275 38.0288 12.8927 37.153 13.3545C37.5855 13.6444 37.899 13.58 38.2342 13.58C37.6179 14.0847 36.5692 14.3425 35.5962 14.6539C35.78 14.9439 35.9638 15.019 36.3638 15.0942C35.3367 15.6634 33.8556 15.4057 33.4448 15.6956C33.5421 15.9856 33.834 16.1681 34.1691 16.3185C32.5042 16.4151 27.9743 16.2541 27.0985 12.8497C28.7959 10.9918 31.8988 8.8225 37.2287 6.12695C33.0772 7.50158 29.3365 9.34873 26.2012 11.8724C22.4929 10.1649 25.0336 5.86921 26.8283 4.16167ZM23.1092 16.4688C25.7255 16.4366 28.9581 18.3804 28.9473 20.1954C28.9365 21.8063 26.6769 23.1057 23.1308 23.0842C19.6604 23.0413 17.3251 21.4519 17.336 19.8839C17.336 18.606 20.1685 16.3937 23.1092 16.4688ZM9.81131 15.0942C10.2113 15.019 10.3951 14.9331 10.5789 14.6539C9.60589 14.3532 8.5572 14.0847 7.94096 13.58C8.2761 13.58 8.58963 13.6552 9.02208 13.3545C8.14637 12.8927 7.2166 12.5275 6.49224 11.8295C6.94632 11.8188 7.43282 11.8295 7.57337 11.6577C6.77334 11.1744 6.10304 10.6374 5.54085 10.0468C6.1679 10.122 6.43819 10.0575 6.58955 9.95012C5.98411 9.34873 5.21651 8.83324 4.85974 8.09223C5.32463 8.25332 5.75708 8.30702 6.0706 8.08149C5.86519 7.63045 4.98948 7.36197 4.48135 6.29878C4.97866 6.34174 5.49761 6.40617 5.60572 6.29878C5.37868 5.38594 4.97866 4.87046 4.60027 4.34424C5.65977 4.3335 7.25984 4.34424 7.18417 4.25832L6.53549 3.60323C7.56256 3.33475 8.62207 3.64619 9.38967 3.88245C9.73563 3.61397 9.37886 3.28105 8.96803 2.9374C9.84374 3.05553 10.633 3.24883 11.3573 3.51732C11.7357 3.1844 11.1087 2.84074 10.8059 2.50783C12.1574 2.75483 12.7304 3.10922 13.3034 3.46362C13.7142 3.07701 13.325 2.74409 13.0439 2.41117C14.0601 2.77631 14.5899 3.25957 15.1413 3.7321C15.3251 3.4851 15.617 3.30253 15.271 2.70113C15.9954 3.10922 16.5467 3.59249 16.9468 4.12945C17.39 3.85023 17.217 3.46362 17.217 3.11996C17.9738 3.72136 18.4495 4.35498 19.0333 4.97785C19.1523 4.89194 19.2496 4.61272 19.3469 4.16167C21.1415 5.86921 23.6822 10.1649 19.9955 11.8724C16.8603 9.34873 13.1196 7.50158 8.96803 6.12695C14.298 8.81176 17.4008 10.9918 19.0982 12.8497C18.2333 16.2648 13.6926 16.4151 12.0276 16.3185C12.3628 16.1681 12.6547 15.9748 12.752 15.6956C12.3195 15.3949 10.8492 15.6527 9.81131 15.0942ZM16.3089 17.6824C18.1252 17.9831 7.59499 26.9718 7.43283 24.9743C7.27066 19.7443 11.3789 16.8662 16.3089 17.6824ZM5.13002 37.7433C2.56775 35.7243 1.74609 29.8285 6.49224 27.1866C9.35723 26.4349 7.46526 38.7635 5.13002 37.7433ZM14.9683 48.2892C13.5304 49.1376 10.0167 48.794 7.53013 45.293C5.85438 42.3504 6.0706 39.3649 7.24903 38.4843C9.01127 37.4319 11.7357 38.8494 13.8331 41.2335C15.6602 43.3814 16.4927 47.1723 14.9683 48.2892ZM12.1141 35.4344C9.46535 33.7375 8.98965 29.8929 11.0438 26.843C13.0979 23.793 16.9143 22.6976 19.5631 24.3944C22.2118 26.0912 22.6875 29.9359 20.6334 32.9858C18.5684 36.0358 14.7521 37.1312 12.1141 35.4344ZM23.1632 54.2817C19.9847 54.4106 16.8711 51.7365 16.9143 50.813C16.8711 49.4491 20.7848 48.3859 23.3254 48.4503C25.8877 48.3429 29.3365 49.2558 29.3473 50.48C29.4014 51.6614 26.2336 54.3354 23.1632 54.2817ZM29.5311 40.8684C29.5527 44.058 26.6985 46.6461 23.1741 46.6676C19.6496 46.6891 16.7738 44.1117 16.7521 40.9328V40.8684C16.7305 37.6789 19.5847 35.0907 23.1092 35.0692C26.6337 35.0477 29.5095 37.6252 29.5311 40.804V40.8684ZM38.418 45.4541C35.6827 49.1698 31.9744 49.3095 30.6014 48.2785C29.1635 46.9468 30.2554 42.8122 32.2339 40.5462C34.4935 38.044 36.9152 36.4116 38.6017 37.6896C39.7369 38.7957 40.4072 42.9626 38.418 45.4541ZM40.8937 37.5929C38.5693 38.6024 36.6773 26.2845 39.5315 27.0363C44.2777 29.6889 43.456 35.5847 40.8937 37.5929Z"/>
</mask>
<path d="M41.2181 25.9838L40.8181 25.2858C40.8289 20.3028 38.5044 18.273 35.7908 16.7266C36.6125 16.5118 37.4558 16.34 37.6936 15.309C39.1099 14.9546 39.4018 14.2995 39.5423 13.6122C39.9099 13.3652 41.1424 12.6779 41.0127 11.4966C41.7046 11.024 42.0938 10.4119 41.8884 9.55277C42.6344 8.74733 42.829 8.08149 42.5154 7.46936C43.4128 6.36322 43.0128 5.79404 42.6344 5.22486C43.3047 4.02206 42.71 2.73335 40.8397 2.94814C40.0937 1.86347 38.472 2.11048 38.2234 2.11048C37.9423 1.76682 37.5747 1.46612 36.4395 1.60573C35.7043 0.950637 34.8827 1.06877 34.0286 1.38021C33.0231 0.596242 32.3528 1.22986 31.5852 1.46612C30.3636 1.07951 30.0825 1.60573 29.4878 1.83125C28.1581 1.55203 27.7472 2.15343 27.1094 2.78705L26.3634 2.77631C24.3525 3.93615 23.3578 6.29878 23.0011 7.51232C22.6443 6.29878 21.6497 3.93615 19.6388 2.77631L18.8928 2.78705C18.2549 2.15343 17.8441 1.55203 16.5143 1.83125C15.9089 1.61647 15.6386 1.07951 14.4169 1.46612C13.9196 1.31577 13.4547 0.993594 12.9141 1.00433C12.6331 1.01507 12.3195 1.11173 11.9736 1.38021C11.1195 1.05803 10.2978 0.950637 9.56265 1.60573C8.42746 1.46612 8.04907 1.75608 7.77879 2.11048C7.53013 2.11048 5.90843 1.86347 5.16246 2.94814C3.2921 2.73335 2.7083 4.02206 3.37859 5.22486C3.0002 5.80478 2.60018 6.37396 3.49752 7.46936C3.18399 8.08149 3.37859 8.74733 4.12457 9.55277C3.92997 10.4119 4.31918 11.024 5.00029 11.4966C4.87055 12.6779 6.10304 13.3652 6.47062 13.6122C6.61117 14.2995 6.90307 14.9439 8.31935 15.309C8.5572 16.3292 9.40048 16.5118 10.2221 16.7266C7.5085 18.273 5.18408 20.3028 5.19489 25.2858L4.79487 25.9838C1.68122 27.831 -1.1189 33.7912 3.25967 38.6239C3.54076 40.1381 4.02727 41.2228 4.44891 42.4256C5.08678 47.2797 9.25993 49.5457 10.3519 49.8142C11.9628 51.017 13.6817 52.1554 15.9954 52.9501C18.19 55.1623 20.5685 56 22.947 56H23.0551C25.4444 56 27.8121 55.1623 29.996 52.9501C32.3204 52.1554 34.0286 51.017 35.6395 49.8142C36.7422 49.5457 40.9046 47.2797 41.5424 42.4256C41.9641 41.2228 42.4506 40.1381 42.7317 38.6239C47.121 33.7805 44.3209 27.831 41.2181 25.9838ZM38.818 25.1247C38.6558 27.1329 28.1256 18.1334 29.9419 17.8327C34.8827 17.0273 38.9801 19.8947 38.818 25.1247ZM34.1691 35.1229C31.5204 36.8197 27.704 35.7243 25.6498 32.6744C23.5957 29.6244 24.0714 25.7798 26.7201 24.083C29.3689 22.3862 33.1853 23.4816 35.2394 26.5315C37.2936 29.5815 36.8179 33.4261 34.1691 35.1229ZM26.8283 4.16167C26.9148 4.61272 27.0229 4.89194 27.1418 4.97785C27.7256 4.35498 28.2013 3.72136 28.9581 3.11996C28.9581 3.47436 28.7743 3.85023 29.2284 4.12945C29.6284 3.59249 30.1798 3.10922 30.9041 2.70113C30.5582 3.30253 30.8392 3.4851 31.0338 3.7321C31.5852 3.25957 32.115 2.78705 33.1312 2.41117C32.8501 2.74409 32.4609 3.07701 32.8718 3.46362C33.4448 3.10922 34.0178 2.75483 35.3692 2.50783C35.0665 2.84074 34.4286 3.1844 34.8178 3.51732C35.5313 3.24883 36.3314 3.04479 37.2071 2.9374C36.7855 3.28105 36.4395 3.61397 36.7855 3.88245C37.5531 3.64619 38.6126 3.33475 39.6396 3.60323L38.991 4.25832C38.9153 4.34424 40.5153 4.32276 41.5748 4.34424C41.1856 4.8812 40.7964 5.38594 40.5694 6.29878C40.6775 6.40617 41.1965 6.34174 41.6938 6.29878C41.1856 7.36197 40.3099 7.61971 40.1045 8.08149C40.418 8.31776 40.8397 8.25332 41.3154 8.09223C40.9478 8.83324 40.191 9.34873 39.5856 9.95012C39.7369 10.0575 40.0072 10.122 40.6343 10.0468C40.0721 10.6374 39.4018 11.1744 38.6017 11.6577C38.7423 11.8188 39.2288 11.8188 39.6829 11.8295C38.9585 12.5275 38.0288 12.8927 37.153 13.3545C37.5855 13.6444 37.899 13.58 38.2342 13.58C37.6179 14.0847 36.5692 14.3425 35.5962 14.6539C35.78 14.9439 35.9638 15.019 36.3638 15.0942C35.3367 15.6634 33.8556 15.4057 33.4448 15.6956C33.5421 15.9856 33.834 16.1681 34.1691 16.3185C32.5042 16.4151 27.9743 16.2541 27.0985 12.8497C28.7959 10.9918 31.8988 8.8225 37.2287 6.12695C33.0772 7.50158 29.3365 9.34873 26.2012 11.8724C22.4929 10.1649 25.0336 5.86921 26.8283 4.16167ZM23.1092 16.4688C25.7255 16.4366 28.9581 18.3804 28.9473 20.1954C28.9365 21.8063 26.6769 23.1057 23.1308 23.0842C19.6604 23.0413 17.3251 21.4519 17.336 19.8839C17.336 18.606 20.1685 16.3937 23.1092 16.4688ZM9.81131 15.0942C10.2113 15.019 10.3951 14.9331 10.5789 14.6539C9.60589 14.3532 8.5572 14.0847 7.94096 13.58C8.2761 13.58 8.58963 13.6552 9.02208 13.3545C8.14637 12.8927 7.2166 12.5275 6.49224 11.8295C6.94632 11.8188 7.43282 11.8295 7.57337 11.6577C6.77334 11.1744 6.10304 10.6374 5.54085 10.0468C6.1679 10.122 6.43819 10.0575 6.58955 9.95012C5.98411 9.34873 5.21651 8.83324 4.85974 8.09223C5.32463 8.25332 5.75708 8.30702 6.0706 8.08149C5.86519 7.63045 4.98948 7.36197 4.48135 6.29878C4.97866 6.34174 5.49761 6.40617 5.60572 6.29878C5.37868 5.38594 4.97866 4.87046 4.60027 4.34424C5.65977 4.3335 7.25984 4.34424 7.18417 4.25832L6.53549 3.60323C7.56256 3.33475 8.62207 3.64619 9.38967 3.88245C9.73563 3.61397 9.37886 3.28105 8.96803 2.9374C9.84374 3.05553 10.633 3.24883 11.3573 3.51732C11.7357 3.1844 11.1087 2.84074 10.8059 2.50783C12.1574 2.75483 12.7304 3.10922 13.3034 3.46362C13.7142 3.07701 13.325 2.74409 13.0439 2.41117C14.0601 2.77631 14.5899 3.25957 15.1413 3.7321C15.3251 3.4851 15.617 3.30253 15.271 2.70113C15.9954 3.10922 16.5467 3.59249 16.9468 4.12945C17.39 3.85023 17.217 3.46362 17.217 3.11996C17.9738 3.72136 18.4495 4.35498 19.0333 4.97785C19.1523 4.89194 19.2496 4.61272 19.3469 4.16167C21.1415 5.86921 23.6822 10.1649 19.9955 11.8724C16.8603 9.34873 13.1196 7.50158 8.96803 6.12695C14.298 8.81176 17.4008 10.9918 19.0982 12.8497C18.2333 16.2648 13.6926 16.4151 12.0276 16.3185C12.3628 16.1681 12.6547 15.9748 12.752 15.6956C12.3195 15.3949 10.8492 15.6527 9.81131 15.0942ZM16.3089 17.6824C18.1252 17.9831 7.59499 26.9718 7.43283 24.9743C7.27066 19.7443 11.3789 16.8662 16.3089 17.6824ZM5.13002 37.7433C2.56775 35.7243 1.74609 29.8285 6.49224 27.1866C9.35723 26.4349 7.46526 38.7635 5.13002 37.7433ZM14.9683 48.2892C13.5304 49.1376 10.0167 48.794 7.53013 45.293C5.85438 42.3504 6.0706 39.3649 7.24903 38.4843C9.01127 37.4319 11.7357 38.8494 13.8331 41.2335C15.6602 43.3814 16.4927 47.1723 14.9683 48.2892ZM12.1141 35.4344C9.46535 33.7375 8.98965 29.8929 11.0438 26.843C13.0979 23.793 16.9143 22.6976 19.5631 24.3944C22.2118 26.0912 22.6875 29.9359 20.6334 32.9858C18.5684 36.0358 14.7521 37.1312 12.1141 35.4344ZM23.1632 54.2817C19.9847 54.4106 16.8711 51.7365 16.9143 50.813C16.8711 49.4491 20.7848 48.3859 23.3254 48.4503C25.8877 48.3429 29.3365 49.2558 29.3473 50.48C29.4014 51.6614 26.2336 54.3354 23.1632 54.2817ZM29.5311 40.8684C29.5527 44.058 26.6985 46.6461 23.1741 46.6676C19.6496 46.6891 16.7738 44.1117 16.7521 40.9328V40.8684C16.7305 37.6789 19.5847 35.0907 23.1092 35.0692C26.6337 35.0477 29.5095 37.6252 29.5311 40.804V40.8684ZM38.418 45.4541C35.6827 49.1698 31.9744 49.3095 30.6014 48.2785C29.1635 46.9468 30.2554 42.8122 32.2339 40.5462C34.4935 38.044 36.9152 36.4116 38.6017 37.6896C39.7369 38.7957 40.4072 42.9626 38.418 45.4541ZM40.8937 37.5929C38.5693 38.6024 36.6773 26.2845 39.5315 27.0363C44.2777 29.6889 43.456 35.5847 40.8937 37.5929Z" fill="#D7D7D7"/>
<path d="M41.2181 25.9838L40.8181 25.2858C40.8289 20.3028 38.5044 18.273 35.7908 16.7266C36.6125 16.5118 37.4558 16.34 37.6936 15.309C39.1099 14.9546 39.4018 14.2995 39.5423 13.6122C39.9099 13.3652 41.1424 12.6779 41.0127 11.4966C41.7046 11.024 42.0938 10.4119 41.8884 9.55277C42.6344 8.74733 42.829 8.08149 42.5154 7.46936C43.4128 6.36322 43.0128 5.79404 42.6344 5.22486C43.3047 4.02206 42.71 2.73335 40.8397 2.94814C40.0937 1.86347 38.472 2.11048 38.2234 2.11048C37.9423 1.76682 37.5747 1.46612 36.4395 1.60573C35.7043 0.950637 34.8827 1.06877 34.0286 1.38021C33.0231 0.596242 32.3528 1.22986 31.5852 1.46612C30.3636 1.07951 30.0825 1.60573 29.4878 1.83125C28.1581 1.55203 27.7472 2.15343 27.1094 2.78705L26.3634 2.77631C24.3525 3.93615 23.3578 6.29878 23.0011 7.51232C22.6443 6.29878 21.6497 3.93615 19.6388 2.77631L18.8928 2.78705C18.2549 2.15343 17.8441 1.55203 16.5143 1.83125C15.9089 1.61647 15.6386 1.07951 14.4169 1.46612C13.9196 1.31577 13.4547 0.993594 12.9141 1.00433C12.6331 1.01507 12.3195 1.11173 11.9736 1.38021C11.1195 1.05803 10.2978 0.950637 9.56265 1.60573C8.42746 1.46612 8.04907 1.75608 7.77879 2.11048C7.53013 2.11048 5.90843 1.86347 5.16246 2.94814C3.2921 2.73335 2.7083 4.02206 3.37859 5.22486C3.0002 5.80478 2.60018 6.37396 3.49752 7.46936C3.18399 8.08149 3.37859 8.74733 4.12457 9.55277C3.92997 10.4119 4.31918 11.024 5.00029 11.4966C4.87055 12.6779 6.10304 13.3652 6.47062 13.6122C6.61117 14.2995 6.90307 14.9439 8.31935 15.309C8.5572 16.3292 9.40048 16.5118 10.2221 16.7266C7.5085 18.273 5.18408 20.3028 5.19489 25.2858L4.79487 25.9838C1.68122 27.831 -1.1189 33.7912 3.25967 38.6239C3.54076 40.1381 4.02727 41.2228 4.44891 42.4256C5.08678 47.2797 9.25993 49.5457 10.3519 49.8142C11.9628 51.017 13.6817 52.1554 15.9954 52.9501C18.19 55.1623 20.5685 56 22.947 56H23.0551C25.4444 56 27.8121 55.1623 29.996 52.9501C32.3204 52.1554 34.0286 51.017 35.6395 49.8142C36.7422 49.5457 40.9046 47.2797 41.5424 42.4256C41.9641 41.2228 42.4506 40.1381 42.7317 38.6239C47.121 33.7805 44.3209 27.831 41.2181 25.9838ZM38.818 25.1247C38.6558 27.1329 28.1256 18.1334 29.9419 17.8327C34.8827 17.0273 38.9801 19.8947 38.818 25.1247ZM34.1691 35.1229C31.5204 36.8197 27.704 35.7243 25.6498 32.6744C23.5957 29.6244 24.0714 25.7798 26.7201 24.083C29.3689 22.3862 33.1853 23.4816 35.2394 26.5315C37.2936 29.5815 36.8179 33.4261 34.1691 35.1229ZM26.8283 4.16167C26.9148 4.61272 27.0229 4.89194 27.1418 4.97785C27.7256 4.35498 28.2013 3.72136 28.9581 3.11996C28.9581 3.47436 28.7743 3.85023 29.2284 4.12945C29.6284 3.59249 30.1798 3.10922 30.9041 2.70113C30.5582 3.30253 30.8392 3.4851 31.0338 3.7321C31.5852 3.25957 32.115 2.78705 33.1312 2.41117C32.8501 2.74409 32.4609 3.07701 32.8718 3.46362C33.4448 3.10922 34.0178 2.75483 35.3692 2.50783C35.0665 2.84074 34.4286 3.1844 34.8178 3.51732C35.5313 3.24883 36.3314 3.04479 37.2071 2.9374C36.7855 3.28105 36.4395 3.61397 36.7855 3.88245C37.5531 3.64619 38.6126 3.33475 39.6396 3.60323L38.991 4.25832C38.9153 4.34424 40.5153 4.32276 41.5748 4.34424C41.1856 4.8812 40.7964 5.38594 40.5694 6.29878C40.6775 6.40617 41.1965 6.34174 41.6938 6.29878C41.1856 7.36197 40.3099 7.61971 40.1045 8.08149C40.418 8.31776 40.8397 8.25332 41.3154 8.09223C40.9478 8.83324 40.191 9.34873 39.5856 9.95012C39.7369 10.0575 40.0072 10.122 40.6343 10.0468C40.0721 10.6374 39.4018 11.1744 38.6017 11.6577C38.7423 11.8188 39.2288 11.8188 39.6829 11.8295C38.9585 12.5275 38.0288 12.8927 37.153 13.3545C37.5855 13.6444 37.899 13.58 38.2342 13.58C37.6179 14.0847 36.5692 14.3425 35.5962 14.6539C35.78 14.9439 35.9638 15.019 36.3638 15.0942C35.3367 15.6634 33.8556 15.4057 33.4448 15.6956C33.5421 15.9856 33.834 16.1681 34.1691 16.3185C32.5042 16.4151 27.9743 16.2541 27.0985 12.8497C28.7959 10.9918 31.8988 8.8225 37.2287 6.12695C33.0772 7.50158 29.3365 9.34873 26.2012 11.8724C22.4929 10.1649 25.0336 5.86921 26.8283 4.16167ZM23.1092 16.4688C25.7255 16.4366 28.9581 18.3804 28.9473 20.1954C28.9365 21.8063 26.6769 23.1057 23.1308 23.0842C19.6604 23.0413 17.3251 21.4519 17.336 19.8839C17.336 18.606 20.1685 16.3937 23.1092 16.4688ZM9.81131 15.0942C10.2113 15.019 10.3951 14.9331 10.5789 14.6539C9.60589 14.3532 8.5572 14.0847 7.94096 13.58C8.2761 13.58 8.58963 13.6552 9.02208 13.3545C8.14637 12.8927 7.2166 12.5275 6.49224 11.8295C6.94632 11.8188 7.43282 11.8295 7.57337 11.6577C6.77334 11.1744 6.10304 10.6374 5.54085 10.0468C6.1679 10.122 6.43819 10.0575 6.58955 9.95012C5.98411 9.34873 5.21651 8.83324 4.85974 8.09223C5.32463 8.25332 5.75708 8.30702 6.0706 8.08149C5.86519 7.63045 4.98948 7.36197 4.48135 6.29878C4.97866 6.34174 5.49761 6.40617 5.60572 6.29878C5.37868 5.38594 4.97866 4.87046 4.60027 4.34424C5.65977 4.3335 7.25984 4.34424 7.18417 4.25832L6.53549 3.60323C7.56256 3.33475 8.62207 3.64619 9.38967 3.88245C9.73563 3.61397 9.37886 3.28105 8.96803 2.9374C9.84374 3.05553 10.633 3.24883 11.3573 3.51732C11.7357 3.1844 11.1087 2.84074 10.8059 2.50783C12.1574 2.75483 12.7304 3.10922 13.3034 3.46362C13.7142 3.07701 13.325 2.74409 13.0439 2.41117C14.0601 2.77631 14.5899 3.25957 15.1413 3.7321C15.3251 3.4851 15.617 3.30253 15.271 2.70113C15.9954 3.10922 16.5467 3.59249 16.9468 4.12945C17.39 3.85023 17.217 3.46362 17.217 3.11996C17.9738 3.72136 18.4495 4.35498 19.0333 4.97785C19.1523 4.89194 19.2496 4.61272 19.3469 4.16167C21.1415 5.86921 23.6822 10.1649 19.9955 11.8724C16.8603 9.34873 13.1196 7.50158 8.96803 6.12695C14.298 8.81176 17.4008 10.9918 19.0982 12.8497C18.2333 16.2648 13.6926 16.4151 12.0276 16.3185C12.3628 16.1681 12.6547 15.9748 12.752 15.6956C12.3195 15.3949 10.8492 15.6527 9.81131 15.0942ZM16.3089 17.6824C18.1252 17.9831 7.59499 26.9718 7.43283 24.9743C7.27066 19.7443 11.3789 16.8662 16.3089 17.6824ZM5.13002 37.7433C2.56775 35.7243 1.74609 29.8285 6.49224 27.1866C9.35723 26.4349 7.46526 38.7635 5.13002 37.7433ZM14.9683 48.2892C13.5304 49.1376 10.0167 48.794 7.53013 45.293C5.85438 42.3504 6.0706 39.3649 7.24903 38.4843C9.01127 37.4319 11.7357 38.8494 13.8331 41.2335C15.6602 43.3814 16.4927 47.1723 14.9683 48.2892ZM12.1141 35.4344C9.46535 33.7375 8.98965 29.8929 11.0438 26.843C13.0979 23.793 16.9143 22.6976 19.5631 24.3944C22.2118 26.0912 22.6875 29.9359 20.6334 32.9858C18.5684 36.0358 14.7521 37.1312 12.1141 35.4344ZM23.1632 54.2817C19.9847 54.4106 16.8711 51.7365 16.9143 50.813C16.8711 49.4491 20.7848 48.3859 23.3254 48.4503C25.8877 48.3429 29.3365 49.2558 29.3473 50.48C29.4014 51.6614 26.2336 54.3354 23.1632 54.2817ZM29.5311 40.8684C29.5527 44.058 26.6985 46.6461 23.1741 46.6676C19.6496 46.6891 16.7738 44.1117 16.7521 40.9328V40.8684C16.7305 37.6789 19.5847 35.0907 23.1092 35.0692C26.6337 35.0477 29.5095 37.6252 29.5311 40.804V40.8684ZM38.418 45.4541C35.6827 49.1698 31.9744 49.3095 30.6014 48.2785C29.1635 46.9468 30.2554 42.8122 32.2339 40.5462C34.4935 38.044 36.9152 36.4116 38.6017 37.6896C39.7369 38.7957 40.4072 42.9626 38.418 45.4541ZM40.8937 37.5929C38.5693 38.6024 36.6773 26.2845 39.5315 27.0363C44.2777 29.6889 43.456 35.5847 40.8937 37.5929Z" stroke="#D7D7D7" stroke-width="2" mask="url(#path-1-outside-1_5_94)"/>
</svg>
