<svg width="107" height="28" viewBox="0 0 107 28" fill="none" xmlns="http://www.w3.org/2000/svg">
<g clip-path="url(#clip0_55_2)">
<path d="M20.7276 12.8525L20.5469 12.5352C20.5518 10.2695 19.502 9.34668 18.2764 8.64356C18.6475 8.5459 19.0284 8.46778 19.1358 7.99903C19.7754 7.83789 19.9073 7.54004 19.9708 7.22754C20.1368 7.11524 20.6934 6.80274 20.6348 6.26563C20.9473 6.05078 21.1231 5.77246 21.0303 5.38184C21.3672 5.01563 21.4551 4.71289 21.3135 4.43457C21.7188 3.93164 21.5381 3.67285 21.3672 3.41406C21.67 2.86719 21.4014 2.28125 20.5567 2.37891C20.2198 1.88574 19.4874 1.99805 19.3751 1.99805C19.2481 1.8418 19.0821 1.70508 18.5694 1.76856C18.2374 1.4707 17.8663 1.52442 17.4805 1.66602C17.0264 1.30957 16.7237 1.59766 16.377 1.70508C15.8252 1.5293 15.6983 1.76856 15.4297 1.8711C14.8292 1.74414 14.6436 2.01758 14.3555 2.30567L14.0186 2.30078C13.1104 2.82813 12.6612 3.90235 12.5001 4.4541C12.3389 3.90235 11.8897 2.82813 10.9815 2.30078L10.6446 2.30567C10.3565 2.01758 10.1709 1.74414 9.57036 1.8711C9.29693 1.77344 9.17486 1.5293 8.6231 1.70508C8.39849 1.63672 8.18853 1.49024 7.94439 1.49512C7.81743 1.5 7.67583 1.54395 7.51958 1.66602C7.13384 1.51953 6.76275 1.4707 6.43071 1.76856C5.91802 1.70508 5.74712 1.83692 5.62505 1.99805C5.51275 1.99805 4.78032 1.88574 4.44341 2.37891C3.59868 2.28125 3.33501 2.86719 3.63775 3.41406C3.46685 3.67774 3.28618 3.93653 3.69146 4.43457C3.54986 4.71289 3.63775 5.01563 3.97466 5.38184C3.88677 5.77246 4.06255 6.05078 4.37017 6.26563C4.31157 6.80274 4.86821 7.11524 5.03423 7.22754C5.09771 7.54004 5.22954 7.83301 5.86919 7.99903C5.97661 8.46289 6.35747 8.5459 6.72857 8.64356C5.50298 9.34668 4.45318 10.2695 4.45806 12.5352L4.27739 12.8525C2.87114 13.6924 1.6065 16.4023 3.58404 18.5996C3.71099 19.2881 3.93071 19.7813 4.12114 20.3281C4.40923 22.5352 6.294 23.5654 6.78716 23.6875C7.5147 24.2344 8.29107 24.752 9.33599 25.1133C10.3272 26.1191 11.4014 26.5 12.4756 26.5H12.5245C13.6036 26.5 14.6729 26.1191 15.6592 25.1133C16.709 24.752 17.4805 24.2344 18.2081 23.6875C18.7061 23.5654 20.586 22.5352 20.8741 20.3281C21.0645 19.7813 21.2842 19.2881 21.4112 18.5996C23.3936 16.3975 22.129 13.6924 20.7276 12.8525V12.8525ZM19.6436 12.4619C19.5704 13.375 14.8145 9.28321 15.6348 9.14649C17.8663 8.78028 19.7168 10.084 19.6436 12.4619V12.4619ZM17.544 17.0078C16.3477 17.7793 14.6241 17.2813 13.6963 15.8945C12.7686 14.5078 12.9834 12.7598 14.1797 11.9883C15.376 11.2168 17.0997 11.7148 18.0274 13.1016C18.9551 14.4883 18.7403 16.2363 17.544 17.0078ZM14.2286 2.93067C14.2676 3.13574 14.3165 3.2627 14.3702 3.30176C14.6338 3.01856 14.8487 2.73047 15.1905 2.45703C15.1905 2.61817 15.1075 2.78906 15.3126 2.91602C15.4932 2.67188 15.7422 2.45215 16.0694 2.2666C15.9131 2.54004 16.0401 2.62305 16.128 2.73535C16.377 2.52051 16.6163 2.30567 17.0752 2.13477C16.9483 2.28613 16.7725 2.4375 16.9581 2.61328C17.2168 2.45215 17.4756 2.29102 18.086 2.17871C17.9493 2.33008 17.6612 2.48633 17.837 2.6377C18.1592 2.51563 18.5206 2.42285 18.9161 2.37403C18.7256 2.53028 18.5694 2.68164 18.7256 2.80371C19.0723 2.69629 19.5508 2.55469 20.0147 2.67676L19.7217 2.97461C19.6876 3.01367 20.4102 3.00391 20.8887 3.01367C20.7129 3.25781 20.5372 3.48731 20.4346 3.90235C20.4834 3.95117 20.7178 3.92188 20.9424 3.90235C20.7129 4.38574 20.3174 4.50293 20.2247 4.71289C20.3663 4.82031 20.5567 4.79102 20.7715 4.71777C20.6055 5.05469 20.2637 5.28906 19.9903 5.5625C20.0586 5.61133 20.1807 5.64063 20.4639 5.60645C20.21 5.875 19.9073 6.11914 19.5459 6.33887C19.6094 6.41211 19.8292 6.41211 20.0342 6.41699C19.7071 6.73438 19.2872 6.90039 18.8917 7.11035C19.087 7.24219 19.2286 7.21289 19.3799 7.21289C19.1016 7.44238 18.628 7.55957 18.1885 7.70117C18.2715 7.83301 18.3545 7.86719 18.5352 7.90137C18.0713 8.16016 17.4024 8.04297 17.2168 8.17481C17.2608 8.30664 17.3926 8.38965 17.544 8.45801C16.792 8.50195 14.7461 8.42871 14.3506 6.88086C15.1172 6.03613 16.5186 5.04981 18.9258 3.82422C17.0508 4.44922 15.3614 5.28906 13.9454 6.43652C12.2706 5.66016 13.418 3.70703 14.2286 2.93067V2.93067ZM12.5489 8.52637C13.7305 8.51172 15.1905 9.39551 15.1856 10.2207C15.1807 10.9531 14.1602 11.5439 12.5586 11.5342C10.9913 11.5147 9.93657 10.792 9.94146 10.0791C9.94146 9.49805 11.2208 8.49219 12.5489 8.52637ZM6.54302 7.90137C6.72368 7.86719 6.80669 7.82813 6.8897 7.70117C6.45025 7.56445 5.97661 7.44238 5.69829 7.21289C5.84966 7.21289 5.99126 7.24707 6.18657 7.11035C5.79107 6.90039 5.37114 6.73438 5.044 6.41699C5.24907 6.41211 5.4688 6.41699 5.53228 6.33887C5.17095 6.11914 4.86821 5.875 4.61431 5.60645C4.89751 5.64063 5.01958 5.61133 5.08794 5.5625C4.8145 5.28906 4.46782 5.05469 4.30669 4.71777C4.51665 4.79102 4.71196 4.81543 4.85357 4.71289C4.76079 4.50781 4.36529 4.38574 4.13579 3.90235C4.3604 3.92188 4.59478 3.95117 4.64361 3.90235C4.54107 3.48731 4.3604 3.25293 4.1895 3.01367C4.66802 3.00879 5.39068 3.01367 5.3565 2.97461L5.06353 2.67676C5.52739 2.55469 6.00591 2.69629 6.35259 2.80371C6.50884 2.68164 6.34771 2.53028 6.16216 2.37403C6.55767 2.42774 6.91411 2.51563 7.24126 2.6377C7.41216 2.48633 7.12896 2.33008 6.99224 2.17871C7.60259 2.29102 7.86138 2.45215 8.12017 2.61328C8.30572 2.4375 8.12993 2.28613 8.00298 2.13477C8.46197 2.30078 8.70122 2.52051 8.95025 2.73535C9.03325 2.62305 9.16509 2.54004 9.00884 2.2666C9.33599 2.45215 9.58501 2.67188 9.76568 2.91602C9.96587 2.78906 9.88775 2.61328 9.88775 2.45703C10.2295 2.73047 10.4444 3.01856 10.7081 3.30176C10.7618 3.2627 10.8057 3.13574 10.8497 2.93067C11.6602 3.70703 12.8077 5.66016 11.1426 6.43652C9.72661 5.28906 8.03716 4.44922 6.16216 3.82422C8.56939 5.04492 9.97075 6.03613 10.7374 6.88086C10.3467 8.4336 8.29595 8.50195 7.544 8.45801C7.69536 8.38965 7.8272 8.30176 7.87114 8.17481C7.67583 8.03809 7.01177 8.15528 6.54302 7.90137V7.90137ZM9.47759 9.07813C10.2979 9.21485 5.54204 13.3018 5.4688 12.3936C5.39556 10.0156 7.25103 8.70703 9.47759 9.07813ZM4.42876 18.1992C3.27154 17.2813 2.90044 14.6006 5.044 13.3994C6.33794 13.0576 5.48345 18.6631 4.42876 18.1992ZM8.87212 22.9941C8.22271 23.3799 6.63579 23.2236 5.51275 21.6318C4.75591 20.2939 4.85357 18.9365 5.38579 18.5361C6.18169 18.0576 7.41216 18.7022 8.35943 19.7861C9.18462 20.7627 9.5606 22.4863 8.87212 22.9941V22.9941ZM7.58306 17.1494C6.38677 16.3779 6.17193 14.6299 7.09966 13.2432C8.02739 11.8564 9.75103 11.3584 10.9473 12.1299C12.1436 12.9014 12.3584 14.6494 11.4307 16.0361C10.4981 17.4229 8.77447 17.9209 7.58306 17.1494V17.1494ZM12.5733 25.7188C11.1377 25.7773 9.7315 24.5615 9.75103 24.1416C9.7315 23.5215 11.4991 23.0381 12.6465 23.0674C13.8038 23.0186 15.3614 23.4336 15.3663 23.9902C15.3907 24.5273 13.96 25.7432 12.5733 25.7188V25.7188ZM15.4493 19.6201C15.459 21.0703 14.17 22.2471 12.5782 22.2568C10.9864 22.2666 9.68755 21.0947 9.67778 19.6494V19.6201C9.66802 18.1699 10.9571 16.9932 12.5489 16.9834C14.1407 16.9736 15.4395 18.1455 15.4493 19.5908V19.6201V19.6201ZM19.4629 21.7051C18.2276 23.3945 16.5528 23.458 15.9327 22.9893C15.2833 22.3838 15.7764 20.5039 16.67 19.4736C17.6905 18.3359 18.7842 17.5938 19.5459 18.1748C20.0586 18.6777 20.3614 20.5723 19.4629 21.7051ZM20.5811 18.1309C19.5313 18.5898 18.6768 12.9893 19.9659 13.3311C22.1094 14.5371 21.7383 17.2178 20.5811 18.1309Z" fill="white"/>
</g>
<path d="M33.48 11.024C33.348 11.108 33.222 11.134 33.102 11.102C32.982 11.07 32.88 10.988 32.796 10.856L30.936 7.76H29.256V10.496C29.256 10.832 29.088 11 28.752 11C28.416 11 28.248 10.832 28.248 10.496V3.368C28.248 3.032 28.416 2.864 28.752 2.864H31.56C32.292 2.864 32.852 3.06 33.24 3.452C33.632 3.84 33.828 4.4 33.828 5.132V5.492C33.828 6.128 33.68 6.636 33.384 7.016C33.088 7.392 32.66 7.626 32.1 7.718L33.672 10.34C33.824 10.62 33.76 10.848 33.48 11.024ZM29.256 6.752H31.56C32.016 6.752 32.34 6.656 32.532 6.464C32.724 6.272 32.82 5.948 32.82 5.492V5.132C32.82 4.68 32.724 4.358 32.532 4.166C32.34 3.97 32.016 3.872 31.56 3.872H29.256V6.752ZM37.62 11C36.948 11 36.448 10.836 36.12 10.508C35.792 10.18 35.628 9.68 35.628 9.008C35.628 8.336 35.79 7.836 36.114 7.508C36.442 7.18 36.944 7.016 37.62 7.016H40.158C40.134 6.596 40.024 6.31 39.828 6.158C39.632 6.002 39.296 5.924 38.82 5.924H38.124C37.724 5.924 37.426 5.952 37.23 6.008C37.034 6.06 36.896 6.156 36.816 6.296C36.744 6.464 36.67 6.58 36.594 6.644C36.518 6.708 36.404 6.74 36.252 6.74C36.084 6.74 35.952 6.694 35.856 6.602C35.76 6.506 35.732 6.38 35.772 6.224C35.892 5.772 36.142 5.442 36.522 5.234C36.906 5.022 37.44 4.916 38.124 4.916H38.82C39.62 4.916 40.212 5.108 40.596 5.492C40.98 5.876 41.172 6.468 41.172 7.268V10.496C41.172 10.832 41.004 11 40.668 11C40.332 11 40.164 10.832 40.164 10.496V10.226C39.736 10.742 39.112 11 38.292 11H37.62ZM37.62 9.992H38.292C38.588 9.992 38.866 9.966 39.126 9.914C39.386 9.858 39.608 9.758 39.792 9.614C39.98 9.47 40.104 9.264 40.164 8.996V8.024H37.62C37.224 8.024 36.96 8.09 36.828 8.222C36.7 8.354 36.636 8.616 36.636 9.008C36.636 9.404 36.7 9.668 36.828 9.8C36.96 9.928 37.224 9.992 37.62 9.992ZM44.9807 11C44.4727 11 44.0707 10.896 43.7747 10.688C43.4787 10.476 43.2887 10.16 43.2047 9.74C43.1767 9.572 43.2087 9.44 43.3007 9.344C43.3967 9.248 43.5287 9.2 43.6967 9.2C43.8607 9.2 43.9787 9.242 44.0507 9.326C44.1267 9.406 44.1887 9.528 44.2367 9.692C44.2847 9.812 44.3647 9.892 44.4767 9.932C44.5927 9.972 44.7607 9.992 44.9807 9.992H46.9487C47.2607 9.992 47.4707 9.942 47.5787 9.842C47.6867 9.738 47.7407 9.524 47.7407 9.2C47.7407 8.88 47.6867 8.668 47.5787 8.564C47.4707 8.46 47.2607 8.408 46.9487 8.408H45.0167C44.4407 8.408 44.0067 8.262 43.7147 7.97C43.4227 7.678 43.2767 7.244 43.2767 6.668C43.2767 6.08 43.4187 5.642 43.7027 5.354C43.9907 5.062 44.4287 4.916 45.0167 4.916H46.8887C47.8287 4.916 48.3847 5.312 48.5567 6.104C48.5887 6.272 48.5567 6.402 48.4607 6.494C48.3647 6.586 48.2327 6.632 48.0647 6.632C47.9087 6.632 47.7927 6.592 47.7167 6.512C47.6407 6.428 47.5807 6.312 47.5367 6.164C47.4887 6.068 47.4147 6.004 47.3147 5.972C47.2187 5.94 47.0767 5.924 46.8887 5.924H45.0167C44.7127 5.924 44.5147 5.97 44.4227 6.062C44.3307 6.154 44.2847 6.356 44.2847 6.668C44.2847 6.956 44.3327 7.15 44.4287 7.25C44.5287 7.35 44.7247 7.4 45.0167 7.4H46.9487C47.5487 7.4 47.9987 7.55 48.2987 7.85C48.5987 8.15 48.7487 8.6 48.7487 9.2C48.7487 9.804 48.5987 10.256 48.2987 10.556C47.9987 10.852 47.5487 11 46.9487 11H44.9807ZM51.3926 13.4C51.0566 13.4 50.8886 13.232 50.8886 12.896V5.42C50.8886 5.084 51.0566 4.916 51.3926 4.916C51.7286 4.916 51.8966 5.084 51.8966 5.42V5.57C52.1126 5.354 52.3786 5.192 52.6946 5.084C53.0146 4.972 53.3726 4.916 53.7686 4.916H54.2246C55.0246 4.916 55.6166 5.108 56.0006 5.492C56.3846 5.876 56.5766 6.468 56.5766 7.268V8.648C56.5766 9.444 56.3846 10.036 56.0006 10.424C55.6166 10.808 55.0246 11 54.2246 11H51.8966V12.896C51.8966 13.232 51.7286 13.4 51.3926 13.4ZM51.8966 9.992H54.2246C54.7486 9.992 55.1026 9.898 55.2866 9.71C55.4746 9.522 55.5686 9.168 55.5686 8.648V7.268C55.5686 6.744 55.4746 6.39 55.2866 6.206C55.1026 6.018 54.7486 5.924 54.2246 5.924H53.7686C53.2686 5.924 52.8366 5.984 52.4726 6.104C52.1086 6.224 51.9166 6.414 51.8966 6.674V9.992ZM59.2911 11C58.9551 11 58.7871 10.832 58.7871 10.496V3.056C58.7871 2.72 58.9551 2.552 59.2911 2.552C59.6271 2.552 59.7951 2.72 59.7951 3.056V5.558C60.0031 5.346 60.2631 5.186 60.5751 5.078C60.8871 4.97 61.2511 4.916 61.6671 4.916H62.1231C62.9231 4.916 63.5151 5.108 63.8991 5.492C64.2831 5.876 64.4751 6.468 64.4751 7.268V8.648C64.4751 9.444 64.2831 10.036 63.8991 10.424C63.5151 10.808 62.9231 11 62.1231 11H61.6671C61.2511 11 60.8871 10.946 60.5751 10.838C60.2631 10.73 60.0031 10.572 59.7951 10.364V10.496C59.7951 10.832 59.6271 11 59.2911 11ZM61.6671 9.992H62.1231C62.6471 9.992 63.0011 9.898 63.1851 9.71C63.3731 9.518 63.4671 9.164 63.4671 8.648V7.268C63.4671 6.744 63.3711 6.39 63.1791 6.206C62.9911 6.018 62.6391 5.924 62.1231 5.924H61.6671C61.1391 5.924 60.6951 5.992 60.3351 6.128C59.9751 6.26 59.7951 6.468 59.7951 6.752V9.164C59.7951 9.444 59.9751 9.652 60.3351 9.788C60.6951 9.924 61.1391 9.992 61.6671 9.992ZM67.4055 8.372V8.66C67.4055 9.176 67.4995 9.528 67.6875 9.716C67.8755 9.9 68.2295 9.992 68.7495 9.992H69.7335C70.1415 9.992 70.4435 9.954 70.6395 9.878C70.8355 9.802 70.9655 9.668 71.0295 9.476C71.0735 9.324 71.1335 9.208 71.2095 9.128C71.2895 9.048 71.4095 9.008 71.5695 9.008C71.7375 9.008 71.8655 9.052 71.9535 9.14C72.0415 9.228 72.0695 9.356 72.0375 9.524C71.9495 10.02 71.7135 10.39 71.3295 10.634C70.9455 10.878 70.4135 11 69.7335 11H68.7495C67.9535 11 67.3615 10.808 66.9735 10.424C66.5895 10.04 66.3975 9.452 66.3975 8.66V7.268C66.3975 6.456 66.5895 5.86 66.9735 5.48C67.3615 5.096 67.9535 4.908 68.7495 4.916H69.7335C70.5335 4.916 71.1255 5.108 71.5095 5.492C71.8935 5.872 72.0855 6.464 72.0855 7.268V7.868C72.0855 8.204 71.9175 8.372 71.5815 8.372H67.4055ZM68.7495 5.924C68.2295 5.916 67.8755 6.006 67.6875 6.194C67.4995 6.382 67.4055 6.74 67.4055 7.268V7.364H71.0775V7.268C71.0775 6.744 70.9835 6.39 70.7955 6.206C70.6115 6.018 70.2575 5.924 69.7335 5.924H68.7495ZM74.795 11C74.459 11 74.291 10.832 74.291 10.496V5.42C74.291 5.084 74.459 4.916 74.795 4.916C75.131 4.916 75.299 5.084 75.299 5.42V5.888C75.535 5.568 75.835 5.326 76.199 5.162C76.567 4.998 76.987 4.916 77.459 4.916C77.795 4.916 77.963 5.084 77.963 5.42C77.963 5.756 77.795 5.924 77.459 5.924C76.767 5.924 76.239 6.052 75.875 6.308C75.511 6.564 75.319 6.902 75.299 7.322V10.496C75.299 10.832 75.131 11 74.795 11ZM79.9161 11C79.5801 11 79.4121 10.832 79.4121 10.496V5.42C79.4121 5.084 79.5801 4.916 79.9161 4.916C80.2521 4.916 80.4201 5.084 80.4201 5.42V5.888C80.6561 5.568 80.9561 5.326 81.3201 5.162C81.6881 4.998 82.1081 4.916 82.5801 4.916C82.9161 4.916 83.0841 5.084 83.0841 5.42C83.0841 5.756 82.9161 5.924 82.5801 5.924C81.8881 5.924 81.3601 6.052 80.9961 6.308C80.6321 6.564 80.4401 6.902 80.4201 7.322V10.496C80.4201 10.832 80.2521 11 79.9161 11ZM86.1412 13.4C85.5612 13.4 85.1272 13.254 84.8392 12.962C84.5552 12.674 84.4132 12.24 84.4132 11.66C84.4132 11.324 84.5812 11.156 84.9172 11.156C85.2532 11.156 85.4212 11.324 85.4212 11.66C85.4212 11.96 85.4652 12.156 85.5532 12.248C85.6452 12.344 85.8412 12.392 86.1412 12.392H88.4692C88.7652 12.392 88.9592 12.344 89.0512 12.248C89.1432 12.156 89.1892 11.96 89.1892 11.66V10.136C88.9492 10.496 88.6692 10.73 88.3492 10.838C88.0332 10.946 87.6892 11 87.3172 11H86.7292C85.9372 11 85.3532 10.812 84.9772 10.436C84.6012 10.06 84.4132 9.48 84.4132 8.696V5.42C84.4132 5.084 84.5812 4.916 84.9172 4.916C85.2532 4.916 85.4212 5.084 85.4212 5.42V8.696C85.4212 9.2 85.5112 9.542 85.6912 9.722C85.8752 9.902 86.2212 9.992 86.7292 9.992H87.3172C87.9732 9.992 88.4492 9.886 88.7452 9.674C89.0412 9.458 89.1892 9.132 89.1892 8.696V5.42C89.1892 5.084 89.3572 4.916 89.6932 4.916C90.0292 4.916 90.1972 5.084 90.1972 5.42V11.66C90.1972 12.24 90.0532 12.674 89.7652 12.962C89.4772 13.254 89.0452 13.4 88.4692 13.4H86.1412ZM96.9668 11C96.6308 11 96.4628 10.832 96.4628 10.496V3.368C96.4628 3.032 96.6308 2.864 96.9668 2.864H99.7748C100.507 2.864 101.067 3.06 101.455 3.452C101.847 3.84 102.043 4.4 102.043 5.132V5.492C102.043 6.224 101.847 6.786 101.455 7.178C101.067 7.566 100.507 7.76 99.7748 7.76H97.4708V10.496C97.4708 10.832 97.3028 11 96.9668 11ZM97.4708 6.752H99.7748C100.231 6.752 100.555 6.656 100.747 6.464C100.939 6.272 101.035 5.948 101.035 5.492V5.132C101.035 4.68 100.939 4.358 100.747 4.166C100.555 3.97 100.231 3.872 99.7748 3.872H97.4708V6.752ZM104.158 3.932C103.778 3.932 103.588 3.74 103.588 3.356V3.002C103.588 2.626 103.778 2.438 104.158 2.438H104.506C104.87 2.438 105.052 2.626 105.052 3.002V3.356C105.052 3.74 104.87 3.932 104.506 3.932H104.158ZM104.326 11C103.99 11 103.822 10.832 103.822 10.496V5.42C103.822 5.084 103.99 4.916 104.326 4.916C104.662 4.916 104.83 5.084 104.83 5.42V10.496C104.83 10.832 104.662 11 104.326 11ZM28.752 25C28.416 25 28.248 24.832 28.248 24.496V17.368C28.248 17.032 28.416 16.864 28.752 16.864H33.168C33.324 16.864 33.446 16.91 33.534 17.002C33.626 17.09 33.672 17.212 33.672 17.368C33.672 17.704 33.504 17.872 33.168 17.872H29.256V20.392H31.668C32.004 20.392 32.172 20.56 32.172 20.896C32.172 21.232 32.004 21.4 31.668 21.4H29.256V24.496C29.256 24.832 29.088 25 28.752 25ZM36.1362 25C35.3402 25 34.7482 24.808 34.3602 24.424C33.9762 24.04 33.7842 23.452 33.7842 22.66V21.268C33.7842 20.464 33.9762 19.872 34.3602 19.492C34.7482 19.108 35.3402 18.916 36.1362 18.916H37.1202C37.9202 18.916 38.5122 19.108 38.8962 19.492C39.2802 19.876 39.4722 20.468 39.4722 21.268V22.648C39.4722 23.444 39.2802 24.036 38.8962 24.424C38.5122 24.808 37.9202 25 37.1202 25H36.1362ZM34.7922 22.66C34.7922 23.176 34.8862 23.528 35.0742 23.716C35.2622 23.9 35.6162 23.992 36.1362 23.992H37.1202C37.6442 23.992 37.9982 23.898 38.1822 23.71C38.3702 23.522 38.4642 23.168 38.4642 22.648V21.268C38.4642 20.744 38.3702 20.39 38.1822 20.206C37.9982 20.018 37.6442 19.924 37.1202 19.924H36.1362C35.7882 19.924 35.5162 19.964 35.3202 20.044C35.1282 20.12 34.9922 20.256 34.9122 20.452C34.8322 20.644 34.7922 20.916 34.7922 21.268V22.66ZM46.6217 18.916C46.9577 18.916 47.1257 19.084 47.1257 19.42V24.496C47.1257 24.832 46.9577 25 46.6217 25C46.2857 25 46.1177 24.832 46.1177 24.496V24.298C45.6937 24.766 45.0697 25 44.2457 25H43.9097C43.1137 25 42.5217 24.808 42.1337 24.424C41.7497 24.036 41.5577 23.444 41.5577 22.648V19.42C41.5577 19.084 41.7257 18.916 42.0617 18.916C42.3977 18.916 42.5657 19.084 42.5657 19.42V22.648C42.5657 23.168 42.6597 23.522 42.8477 23.71C43.0397 23.898 43.3937 23.992 43.9097 23.992H44.2457C44.7257 23.992 45.1437 23.936 45.4997 23.824C45.8597 23.712 46.0657 23.54 46.1177 23.308V19.42C46.1177 19.084 46.2857 18.916 46.6217 18.916ZM50.127 25C49.791 25 49.623 24.832 49.623 24.496V19.42C49.623 19.084 49.791 18.916 50.127 18.916C50.463 18.916 50.631 19.084 50.631 19.42V19.618C51.055 19.15 51.679 18.916 52.503 18.916H52.839C53.639 18.916 54.231 19.108 54.615 19.492C54.999 19.876 55.191 20.468 55.191 21.268V24.496C55.191 24.832 55.023 25 54.687 25C54.351 25 54.183 24.832 54.183 24.496V21.268C54.183 20.744 54.087 20.39 53.895 20.206C53.707 20.018 53.355 19.924 52.839 19.924H52.503C52.023 19.924 51.605 19.98 51.249 20.092C50.893 20.2 50.687 20.372 50.631 20.608V24.496C50.631 24.832 50.463 25 50.127 25ZM59.6323 25C58.8363 25 58.2443 24.808 57.8563 24.424C57.4723 24.036 57.2803 23.444 57.2803 22.648V21.268C57.2803 20.468 57.4723 19.876 57.8563 19.492C58.2443 19.108 58.8363 18.916 59.6323 18.916H61.9603V17.056C61.9603 16.72 62.1283 16.552 62.4643 16.552C62.8003 16.552 62.9683 16.72 62.9683 17.056V24.496C62.9683 24.832 62.8003 25 62.4643 25C62.1283 25 61.9603 24.832 61.9603 24.496V24.412C61.7723 24.604 61.5263 24.75 61.2223 24.85C60.9183 24.95 60.5403 25 60.0883 25H59.6323ZM59.6323 23.992H60.0883C60.6163 23.992 61.0603 23.924 61.4203 23.788C61.7803 23.652 61.9603 23.444 61.9603 23.164V19.924H59.6323C59.1123 19.924 58.7583 20.02 58.5703 20.212C58.3823 20.4 58.2883 20.752 58.2883 21.268V22.648C58.2883 23.168 58.3823 23.522 58.5703 23.71C58.7623 23.898 59.1163 23.992 59.6323 23.992ZM67.2216 25C66.5496 25 66.0496 24.836 65.7216 24.508C65.3936 24.18 65.2296 23.68 65.2296 23.008C65.2296 22.336 65.3916 21.836 65.7156 21.508C66.0436 21.18 66.5456 21.016 67.2216 21.016H69.7596C69.7356 20.596 69.6256 20.31 69.4296 20.158C69.2336 20.002 68.8976 19.924 68.4216 19.924H67.7256C67.3256 19.924 67.0276 19.952 66.8316 20.008C66.6356 20.06 66.4976 20.156 66.4176 20.296C66.3456 20.464 66.2716 20.58 66.1956 20.644C66.1196 20.708 66.0056 20.74 65.8536 20.74C65.6856 20.74 65.5536 20.694 65.4576 20.602C65.3616 20.506 65.3336 20.38 65.3736 20.224C65.4936 19.772 65.7436 19.442 66.1236 19.234C66.5076 19.022 67.0416 18.916 67.7256 18.916H68.4216C69.2216 18.916 69.8136 19.108 70.1976 19.492C70.5816 19.876 70.7736 20.468 70.7736 21.268V24.496C70.7736 24.832 70.6056 25 70.2696 25C69.9336 25 69.7656 24.832 69.7656 24.496V24.226C69.3376 24.742 68.7136 25 67.8936 25H67.2216ZM67.2216 23.992H67.8936C68.1896 23.992 68.4676 23.966 68.7276 23.914C68.9876 23.858 69.2096 23.758 69.3936 23.614C69.5816 23.47 69.7056 23.264 69.7656 22.996V22.024H67.2216C66.8256 22.024 66.5616 22.09 66.4296 22.222C66.3016 22.354 66.2376 22.616 66.2376 23.008C66.2376 23.404 66.3016 23.668 66.4296 23.8C66.5616 23.928 66.8256 23.992 67.2216 23.992ZM75.7223 25C74.9303 25 74.3463 24.812 73.9703 24.436C73.5943 24.06 73.4062 23.48 73.4062 22.696V19.924H72.8183C72.4823 19.924 72.3143 19.756 72.3143 19.42C72.3143 19.084 72.4823 18.916 72.8183 18.916H73.4062V18.04C73.4062 17.704 73.5743 17.536 73.9103 17.536C74.2463 17.536 74.4143 17.704 74.4143 18.04V18.916H75.7943C76.1303 18.916 76.2983 19.084 76.2983 19.42C76.2983 19.756 76.1303 19.924 75.7943 19.924H74.4143V22.696C74.4143 23.204 74.5063 23.548 74.6903 23.728C74.8743 23.904 75.2183 23.992 75.7223 23.992C75.8783 23.992 76.0003 24.032 76.0883 24.112C76.1803 24.192 76.2263 24.32 76.2263 24.496C76.2263 24.832 76.0583 25 75.7223 25ZM78.5176 17.932C78.1376 17.932 77.9476 17.74 77.9476 17.356V17.002C77.9476 16.626 78.1376 16.438 78.5176 16.438H78.8656C79.2296 16.438 79.4116 16.626 79.4116 17.002V17.356C79.4116 17.74 79.2296 17.932 78.8656 17.932H78.5176ZM78.6856 25C78.3496 25 78.1816 24.832 78.1816 24.496V19.42C78.1816 19.084 78.3496 18.916 78.6856 18.916C79.0216 18.916 79.1896 19.084 79.1896 19.42V24.496C79.1896 24.832 79.0216 25 78.6856 25ZM83.7495 25C82.9535 25 82.3615 24.808 81.9735 24.424C81.5895 24.04 81.3975 23.452 81.3975 22.66V21.268C81.3975 20.464 81.5895 19.872 81.9735 19.492C82.3615 19.108 82.9535 18.916 83.7495 18.916H84.7335C85.5335 18.916 86.1255 19.108 86.5095 19.492C86.8935 19.876 87.0855 20.468 87.0855 21.268V22.648C87.0855 23.444 86.8935 24.036 86.5095 24.424C86.1255 24.808 85.5335 25 84.7335 25H83.7495ZM82.4055 22.66C82.4055 23.176 82.4995 23.528 82.6875 23.716C82.8755 23.9 83.2295 23.992 83.7495 23.992H84.7335C85.2575 23.992 85.6115 23.898 85.7955 23.71C85.9835 23.522 86.0775 23.168 86.0775 22.648V21.268C86.0775 20.744 85.9835 20.39 85.7955 20.206C85.6115 20.018 85.2575 19.924 84.7335 19.924H83.7495C83.4015 19.924 83.1295 19.964 82.9335 20.044C82.7415 20.12 82.6055 20.256 82.5255 20.452C82.4455 20.644 82.4055 20.916 82.4055 21.268V22.66ZM89.795 25C89.459 25 89.291 24.832 89.291 24.496V19.42C89.291 19.084 89.459 18.916 89.795 18.916C90.131 18.916 90.299 19.084 90.299 19.42V19.618C90.723 19.15 91.347 18.916 92.171 18.916H92.507C93.307 18.916 93.899 19.108 94.283 19.492C94.667 19.876 94.859 20.468 94.859 21.268V24.496C94.859 24.832 94.691 25 94.355 25C94.019 25 93.851 24.832 93.851 24.496V21.268C93.851 20.744 93.755 20.39 93.563 20.206C93.375 20.018 93.023 19.924 92.507 19.924H92.171C91.691 19.924 91.273 19.98 90.917 20.092C90.561 20.2 90.355 20.372 90.299 20.608V24.496C90.299 24.832 90.131 25 89.795 25Z" fill="white"/>
<defs>
<clipPath id="clip0_55_2">
<rect width="25" height="25" fill="white" transform="translate(0 1.5)"/>
</clipPath>
</defs>
</svg>
